<?xml version="1.0" encoding="UTF-8"?>
<svg id="a" xmlns="http://www.w3.org/2000/svg" version="1.1" viewBox="0 0 1227.6 879.1">
  <!-- Generator: Adobe Illustrator 29.6.0, SVG Export Plug-In . SVG Version: 2.1.1 Build 207)  -->
  <defs>
    <style>
      .st0, .st1, .st2, .st3, .st4 {
        stroke-width: .5px;
      }

      .st0, .st1, .st2, .st3, .st4, .st5 {
        fill: none;
        stroke: #333;
        stroke-linecap: round;
        stroke-linejoin: round;
      }

      .st1 {
        stroke-dasharray: 2 2;
      }

      .st2 {
        stroke-dasharray: 2;
      }

      .st3 {
        stroke-dasharray: 1.9 1.9;
      }

      .st4 {
        stroke-dasharray: 2.1 2.1;
      }
    </style>
  </defs>
  <g id="b">
    <path class="st0" d="M-2,822c3-3,2-8,6-10,7.3-6,15-11,23-15h6l7,4c12.7,4,26,6,40,6l9-1,11,2,12-3,7,1c5,0,5-5,8-8l4-2c11-3,10,11,21,9l9-1c10,0,8,14,27,23,8,4,8,8,11,16,5,6,13-1,16-5,2-2.7,2.7-5.7,2-9l-2-7c-1-4,3-9,0-13-2-5-8-9-10-14v-11c2-4,10,2,13,3l10,7c5.3,1.3,10.3,3.7,15,7,4,4.7,4.3,10,1,16-2.7,5.3-4,11-4,17,1.3,2.7,3.3,4.7,6,6,4,2,8-3,10-6,.7-2,1.7-4.3,3-7,2-1.3,4.7-2,8-2,7-1,6,9,21,12h8c10-2.7,20.3-3.7,31-3,4,0,8-.7,12-2l2-5c2-6,1.3-11.7-2-17-4-2.7-8.3-4.3-13-5-4-2-8-2.7-12-2-4,3.3-6.7,7.7-8,13-1,4-2,11-7,12-6-1.3-11.3-4-16-8-4-2-11-3-4-11,2-3.3,2.7-6.7,2-10v-16l6-2h17c6.7-2,11.3-6,14-12,3-3,8-15,13-9,1.3,2,2.3,4.3,3,7,2,2,3.3,4.3,4,7-.7,2-1.7,4.3-3,7,1,9,12,7,18,5,4-.7,7.3-2,10-4,4.7.7,8-.3,10-3,2.7-2,5.7-2.3,9-1,4,.7,7.7,2.3,11,5,5,7-1,14,10,16,5.3.7,10.3,2.3,15,5h7l7,2,7-1,8-3,8-10c2-3.3,3-6.7,3-10-1.3-8.7-6.3-13.7-15-15-5,0-8,6-10,10-1.3,5.3-5,7.7-11,7-5.3.7-10.7.3-16-1l-7-2c-1.3-2-1-4,1-6,2-4,4.3-6.7,7-8l4-1,5-5,9-5c18-12,6-11,12-23,5.3-6,12-10.7,20-14,3.3-.7,6-.3,8,1l8,2c7.3,1.3,13.3.3,18-3,8.7-8,17.7-15.3,27-22,8-5.3,10.7-3,8,7-2,7-9,13-13,20l-3,6c-1,7,8,8,10,13l6,7c6,3.3,9.3,8,10,14l4,7c4,3,12,3,11-4-1.3-3.3-1.3-6,0-8l10-9c4-3-1-6-3-7-2.7-2-3.7-4.3-3-7-1.3-3.3-1.3-6.7,0-10,8-10,23-2,26-10,5-11-12-15-8-26l5-5,3-4h3c14,5,5,17,29,12l10-4,7-5,11-6,11-7,11-5c9-4,6-13,10-19,2.7-1.3,4-3,4-5,1-4-2-5,0-10,2-3,5-12,10-11,4,0,7,1.7,9,5,8,8,1,16,5,23,17,11,46,2,59-9,7-4,7-6,6-14-.7-3.3.3-7,3-11,1.3-1.3,3.3-2,6-2l15-3c3.3-1.3,6-3.3,8-6,2.7-1.3,4.7-3.3,6-6,2.7-7.3.7-13.3-6-18l-6-7-3-9-2-5c1.3-2.7,3.7-5,7-7,4.7-4,10-7,16-9,2.7,0,5,.3,7,1,6.7-.7,13-.3,19,1,5.3,0,10-1.3,14-4l4-8,8-7,4-7,12-10c2.7-2.7,6-4.7,10-6l4-2,10-10c2-5.3,3-11,3-17l2-5c2-.7,4.3-1.7,7-3l3-4,4-5c4-3.3,7.7-7,11-11l6-6c3.3-4,7.3-4.3,12-1,4,4,12,9,8,16-2,2-3,4.3-3,7,2.7,4.7,6.7,6.3,12,5,3.3-2,5.3-4.3,6-7l4-6c6-2,11.7-.7,17,4l2,7c.7,2,1.7,3.7,3,5,2.7,4,6,7,10,9l17,7c3.3.7,7,2,11,4,4.7,3.3,6.3,8,5,14-1,6,10,9,14,5,1.3-2.7,2-5,2-7l7-6c3.3-2.7,6-5.7,8-9,2.7-2.7,5.7-4,9-4,3.3.7,5.3,2,6,4,7,8,19,13,19,24s1.7,7.7,5,9c4,.7,7.3,3,10,7,3.3,4.7,3.7,9.7,1,15,0,4,2,6,6,6l9-2,5-2c2-2.7,4.3-5.3,7-8l7-4c1.3-1.3,1.3-2.7,0-4l-4-2c-8-3-21-14-10-22,3-2,8-1,9-5,3-6,0-12-1-18v-12c5-8-2-10-5-17-1-10-2-8-10-11-2.7-2-3.3-4.3-2-7,5-12,6-11,0-24-5-10-13,0-19,3-5.3,2.7-9.7,2-13-2-8-12-15-11.7-21,1,0,2.7-.7,5-2,7l-3,7v9c-2,6-6.3,9.7-13,11-4.7,1.3-9.3,2.3-14,3l-12,1-8,1c-2,2.7-3.7,4.3-5,5h-4c-4-4,4-8,0-11-2-2-7-2-7-6,.7-6,4-11,10-15l13-10,10-5c10.7-2,19-7.3,25-16,4.7-5.3,7-11.3,7-18,.7-3.3.3-6.7-1-10l-7-4-12-8c-4-4-8.3-7-13-9-3-1-13-5-10-10,4-4,11,0,17,0l7-2c4-2,8.7-3.3,14-4,4.7-1.3,9.3-1.3,14,0,3.3,1.3,6.3,1.7,9,1,2.7-1.3,5-1.7,7-1,1.3,2,2.3,4.7,3,8l8,8c2,4,0,9,5,12,5.3,4,11.7,5.3,19,4,5.3-2,8-5.3,8-10s-6-7-6-11c.7-1.3,1.7-3,3-5l5-9v-11c1-11-10-3-15-8-4-6,4-6-5-12-5.3-4-9-9-11-15-2.7-2.7-5.3-4.7-8-6-5-6-5-12-8-18-3-10,7-15,12-22,4-9-7-14,5-21,4-2.7,9-4.7,15-6,2-2.7,4.3-4.7,7-6h10l9-5,8-1c4-2,7.3-5,10-9,4.7-6.7,4-13-2-19-4.7-4-8-9.7-10-17l-2-4-6-3c-.7-2.7-.7-5,0-7l5-14,7-9,5-4c2.7-4,6-8,10-12,1-3-1-8,2-11,2.7-1.3,4.3-3,5-5l-1-9v-11c-.7-4-.3-7.7,1-11,4-5,7-12,14-13,3.3-.7,5.3-2.3,6-5l-3-4c-2-3-13-11-11-15,2.7-3.3,5.3-6,8-8l2-7"/>
    <path class="st2" d="M1,803l13-8c5.3-4,11-7,17-9l5-1c2,0,4,.7,6,2,5.3,4.7,11,8,17,10,6.7,4,13.7,5.3,21,4l14-1c6.7.7,13-.7,19-4,3.3-2,6.3-4.7,9-8,5.3-2.7,11-3.7,17-3,4,3.3,8.3,6.3,13,9,2.7,1.3,5.3.7,8-2l7-8,5-2c4-1.3,7.7-3.3,11-6,2.7-2,5.3-3,8-3l11,2,9,2c5.3,3.3,10.7,5.3,16,6,4,0,7.3-1.7,10-5,3.3-2,7-2.7,11-2l10,1,7-1c5.3-2.7,11-4,17-4,5.3-1.3,10.3-1.7,15-1,6,0,11-2,15-6,4-6.7,9-12.7,15-18,4-3.3,7.7-4,11-2l9,7c5.3,4.7,11.3,7.7,18,9h7l15,6c6,0,7-6,11-9l13-4c4-1.3,7.7-3.3,11-6,2-1.3,3.3-3.7,4-7,3-16,17-20,29-28h7l13,2,8-1,7-6,5-2c6.7-3.3,12.3-7.3,17-12,8-7.3,17-13.3,27-18l30-15c5.3-2,11.3-2.7,18-2,6,.7,9.3,4,10,10l4,9,2,2h4l6-4,1-4c2-6,9-4,14-4,8,0,7-7,14-9,3.3-1.3,6.7-2.3,10-3,4-2,6.7-4.7,8-8,1.3-7.3,4-14,8-20l6-11c.7-3.3,2.7-6,6-8,6.7,0,13,1.7,19,5,5.3,2,8.3,5.7,9,11l2,8c-1,4-4,9,0,13,6,5,10-2,17-1,4,1.3,8,1,12-1,6.7-.7,11.3-4.3,14-11,3-3,7-7,4-11-2.7-1.3-5.7-2.7-9-4l-4-2c-4-2-8-3.3-12-4-4-2.7-8.3-4.7-13-6l-5-3c-9-8,9-16,15-18l14-8,20-8c2-.7,3.7-2.3,5-5l1-6,4-3c4.7-2.7,9-5.7,13-9,6.7-7.3,14.7-11.7,24-13l11-2,6,2c3.3.7,6,.3,8-1,4.7-2.7,7-6.7,7-12-1.3-3.3-1-6,1-8,9-5,22-1,28-10l5-5c5.3-.7,9.3-3,12-7l4-12,3-10,9-12c4-2.7,7.7-5.7,11-9l4-4c2.7-2.7,6-5.3,10-8l6-7,8-3,8-4,5-1h12c3.3.7,6-.7,8-4,1.3-2,3-3.3,5-4,3.3-.7,6,0,8,2v2l-1,2c-4,2.7-4.3,5.3-1,8,2,2,4.3,2,7,0l15-7,8-2,4-3c6-4.7,12.3-7.7,19-9s12.7-4,18-8c2.7-2,5-5,7-9,2-2.7,3-6,3-10s-1.3-7.3-4-10c-3.3-1.3-6.7-2-10-2s-9-1.3-13-4c-1.3-2.7-2-5-2-7-2.7-2-5.7-3.3-9-4-3.3.7-6-.3-8-3l-1-6,4-15,2-5c1.3-2,3.3-3.3,6-4l15-11,5-5,3-6,6-5,4-3,6-1c5.3,0,8.7,2,10,6,2,3.3,2.3,6.7,1,10l-5,5c-6,6,3,13,10,11l9-4,9,1c4,0,7.7-1,11-3,4-2,5.3-4.3,4-7-5-10-1-11-13-17l-14-10-3-3,2-8-2-5-1-10c1.3-8,3.3-15.7,6-23l1-6c.7-9.3,6-15.7,16-19,4.7-1.3,9-3.7,13-7l7-7c2.7-1.3,6-2,10-2s5.7-.7,9-2l12-7,5-4-1-4-4-5c-1.3-4.7-4-8-8-10-6-4-18-7-14-16l5-8,1-5c0-3.3.7-6,2-8l3-5,1-6,11-13,5-5c8-12-5-14,2-27l8-17,4-12c.7-4,.3-7.7-1-11-1.3-4-1-8.3,1-13,3.3-4.7,7-9.7,11-15"/>
    <path class="st5" d="M0,807l8-4c6.7-6.7,15-11.3,25-14h5l6,5,10,3c8.7,5.3,17.7,7.3,27,6,11-3,15,2,27-3l7-1c3.3-3.3,7-6.3,11-9,6-3.3,11.7-3,17,1,3,2,5,8,9,8,7-1,12-7,18-10l5-2c1.3,1.3,2.3,3,3,5,1,4,6,6,7,10,0,6-5,9-2,15,3.3,4.7,7.7,7,13,7,6-1,8-8,7-13,0-5-6-6-8-9-1-5,2-10-3-13l-5-3-1-2,3-3,5-5h6l11,2,16,8c4.7,2,8.7,1,12-3,2-2.7,4.3-4,7-4,5,0,16,1,15,9-.7,2-1.7,4.3-3,7v4l-1,6,1,7v2c4.7,2,8,.3,10-5,2.7-2.7,2.7-5.7,0-9-2-2-6-7-4-10l6-5,1-7,3-2c6-2,12.7-3.3,20-4,6,1,14,3,17-3l12-16,7-5c3.3-.7,5.7.3,7,3,4.7,4.7,10,7.7,16,9,4,2.7,7.7,4.3,11,5,10-3,25,10,31,3,5-8,5-9,14-11,4.7-1.3,9-3.3,13-6,5.3-2,7.7-5.7,7-11,0-12,12-18,22-23,2-1.3,4.3-2.3,7-3,8-1,17,5,25,2l8-6c4.7-2,8.7-4.3,12-7,8.7-8,17.7-15,27-21l10-4,11-4h2v2c-2.7,2.7-5.7,3.7-9,3-3.3,2-5.7,4.7-7,8l-2,8c2,3.3,2.3,7,1,11-4,5.3-8.7,10.3-14,15-1.3,2-2,4.7-2,8,4,6.7,9.7,10,17,10,2.7.7,5,0,7-2,3-5-1-12,3-17,2.7-2.7,5.7-4,9-4,5-1,21,2,20-7l-9-11c-8-8,5-15-5-22-3-1-7-3-3-5,6-4.7,13-8,21-10,2.7-1.3,5.3-1,8,1,2.7,1.3,3.7,4,3,8l4,8c4,5,8,10,15,7,3.3-.7,6-2,8-4-.7-6.7,2-9,8-7,8.7,1.3,13.7-2,15-10l5-2c6.7,2,12-.7,16-8,2-3.3,2.7-7,2-11,0-9,8-14,11-22,.7-4.7,3-8,7-10,7.3.7,14,3.3,20,8,3.3,5.3,4.3,11,3,17,0,4,.7,7.7,2,11l10,2,7-1c5.3.7,10.7,0,16-2l12-7,4-5c2-2,3.3-4.3,4-7,1.3-6.7-1.3-10.7-8-12l-19-7-10-5c-7.3-2.7-8-6.7-2-12,1.3-2,3.3-3.3,6-4,6.7-2.7,13.7-6,21-10l16-6c3.3-.7,5.7-2,7-4l2-9,5-4,9-7c8-6,17-14,28-12,6,1.3,12.3,1.3,19,0,5-1,11,2,13-4,1.3-4,2-7.3,2-10,2.7-3.3,6-6,10-8,5.3-1.3,10-3.7,14-7,2-3.3,4.7-6,8-8,3.3-.7,6-2.7,8-6,2.7-4,4.7-8.7,6-14,.7-6,3-11,7-15l22-21,10-9,4-3,13-4c3.3,0,5.3,1.3,6,4l8,9c4,6,9.7,7.7,17,5,4-1,3-6,5-9,1.3-2.7,3.7-4,7-4l6-1,5-1c1.3-2,3.3-4,6-6,3.3-1.3,7-3.3,11-6,5.3-4.7,11.3-8.3,18-11,10-4,21-6,26-15,5-8,10-20,1-26l-17-4c-2.7-.7-4-2.7-4-6s-2.7-5.7-8-7l-8-4c-6-3-4-10-3-15,1.3-4,4-5.7,8-5l4,1c2,2,8,3,7-2-1.3-1.3-2-3-2-5l2-3,8-9c2-2,3.3-4.7,4-8l6-5c3.3-2,6.3-2.7,9-2,4,1.3,6,3.7,6,7-1.3,2-3,3.7-5,5-2.7,3.3-3.7,6.7-3,10,0,7,11,8,16,8l13-3h13c4-1.3,7.7-3.3,11-6,2-1.3,2.7-3.3,2-6l-7-14-8-6c-4-2-7.7-5.3-11-10-1.3-3.3-2.3-7-3-11l-4-10c0-8.7,3-16,9-22,2-1.3,2.3-3,1-5-6-16,6-18,18-24,3.3-.7,6-2.3,8-5,2.7-5.3,6.7-8,12-8h7l12-5,10-4c5.3-4,5.3-8.7,0-14-4-3.3-7.3-7.3-10-12l-12-9c-5-6-1-9,2-13l1-10,4-6c1.3-3.3,3-6.3,5-9,3.3-3.3,7-6,11-8,5.3-6,7-13,5-21l-2-10c2-9,8-17,10-26,1-5,7-8,8-13-.7-3.3-1.7-6.3-3-9-3.3-5.3-3.3-10.3,0-15,4-3.3,8-7,12-11"/>
    <path class="st0" d="M1129,639l-8-1c-4,0-7.7,1-11,3l-6,3c-2,0-3.7-1-5-3-4-5.3-5.3-11.3-4-18l-1-12-1-8-6-9-1-5c-1-7-8-12-13-17-3.3-4-3.7-8.7-1-14l3-3c0-2-1-3.7-3-5l-2-2h-5l-10,1c-3.3.7-5.7,2.7-7,6,0,6,2,9-4,13-6,2.7-9,7.3-9,14,.7,6.7-1.3,12.7-6,18l-8,4-4,1c-4,5.3-3.3,10.7,2,16l9,7,7,6c3,6-2,9-6,6l-7-1c-4,.7-7.3,1-10,1-3.3-.7-6.7-1-10-1-3.3,1.3-4.3,3.7-3,7l4,4c8,6,6,18,13,25s7,5.3,11,6l7,1c2.7,1.3,4.7,3.3,6,6l-5,4c-2,.7-2.7,2-2,4,.7,2.7,2.3,5,5,7,2,3.3,5,4.7,9,4,6-1,6,0,9,5,4,2.7,7,6,9,10v11l-2,5,1,5,1,5c2,6,5,10.7,9,14,3.3,4.7,7.7,6.7,13,6,4.7-2,9-4.7,13-8,6-.7,12,0,18,2,7.3,0,14,1.7,20,5,2.7,2,4.7,4.3,6,7l5,9c.7,4.7,3,8.3,7,11,5.3,1.3,10.3.7,15-2,4-3.3,5-7.7,3-13l-1-6-6-8c-4-4.7-5.7-10-5-16-1-7-15-11-20-16s-6-7-4-11c2.7-3.3,6-5.3,10-6l16-6,13-4c3.3-.7,5.3-2.7,6-6l2-10c0-5-7-6-10-9l-4-5c-4.7-5.3-10.3-10-17-14l-9-10-8-8c-2-2.7-4.3-4.3-7-5M540,896c.7-4,0-7.7-2-11-1.3-2-1.7-4-1-6l3-3c4.7-4.7,9-10,13-16,2-5,8-5,12-8,3.3-3.3,4-7,2-11-4-4-7-8.3-9-13,0-9.3,3-16.3,9-21,16-9,37,9,50-7,4-4,7-8.7,9-14l8-19c1.3-8.7-1.7-16-9-22l-5-7c-1-7,8-12,13-16,3.3-.7,5.7-2.7,7-6,3-10,6-22,16-28,4-1.3,8.7-2,14-2,4-1,9-6,13-2,4.7,4,6.3,9.3,5,16-1.3,2.7-3.3,5-6,7-2,2.7-1.7,4.7,1,6l14,6c2,1.3,3.7,1,5-1,5-4,2-11-1-17l-2-5c-.7-6-3.3-11.7-8-17-2-2-2-7,2-7,6.7.7,12.7,3.3,18,8,.7,1.3,2,2.3,4,3h3c12,.7,23.3,2.3,34,5l5,4c3.3,2,6.3,2.7,9,2,6,0,4,8,3,12-2,2.7-3.3,5.3-4,8,0,5,9,10,13,10,5,1,11-3,16-1,4.7,3.3,7,7.7,7,13s6,4,9,5l4,1c5,1,11-2,16-1,6-1,12,4,18,1,3.3-2,7-3,11-3,16-1,34-1,48,10l3,3,11,4c2,.7,2.7,1.7,2,3l-2,2c-7.3,6.7-7.7,13.3-1,20,4.7,4,6,8.3,4,13l-2,1c-4.7,2.7-8,6.3-10,11l-2,3c-3.3,1.3-6.3,3.3-9,6-2.7,3.3-4.3,7-5,11-4,11,0,22-5,32-3.3,6-8.7,8.7-16,8l-7,2-5,1c-9,2-10-1-11-9-1.3-1.3-3-2-5-2-9,1-22,8-25-2l-3-4h-9l-3-1c-6-4.7-12.7-6.7-20-6-4,0-8,6-11,4l-5-5c-2,0-4.3-.7-7-2-1.3-1.3-2.3-3-3-5l-4-4c-1.3-1.3-2-3-2-5-.7-6-3-11.7-7-17-.7-1.3-2-2.3-4-3-2.7-.7-4.3-1.7-5-3-5-4-9-11-16-12-8-2,0,13-10,18s-12,1-18,2c-4,1.3-6.7,4.3-8,9-2.7,4.7-6.7,8-12,10-5.3.7-9.3-1-12-5-.7-1.3-2-2.3-4-3-3.3-1.3-7-1-11,1-3.3.7-6,3-8,7-2,5,8,5,7,12,0,8.7-3.3,16-10,22-2,1.3-4.3,1.7-7,1-2-.7-3.7-2.7-5-6-1.3-4-4-6.3-8-7l-3,3c-.7,3.3-2.7,6.3-6,9-2.7,2-4,4.3-4,7l2,15c-1.3,2.7-1,5,1,7"/>
    <path class="st0" d="M479,897c7-1,14-8,12-16-1.3-2.7-2.3-5.3-3-8,0-4,2-6,6-6,6.7,2,13.7,3,21,3,11-2,24-7,30-17l1-7-4-25c-1-7,6-12,11-17,3.3-4,5-9.3,5-16,.7-2.7,1.7-2.7,3,0,0,2.7,1,4,3,4,5,1,8-5,12-7l3-1c5,0,8,4,13,4,10,3,20-5,24-14,2-5,0-12-6-10-7.3,4-14.7,7-22,9-7.3,1.3-14,1.3-20,0-4-2.7-5-6.3-3-11,4-8,13-16,9-25-2-1.3-4.3-2-7-2-2-2-2-3.7,0-5l3-2c4.7-1.3,9-1.7,13-1,2.7.7,4.3-.3,5-3-.7-8,2-15,8-21s18,6,28-4l6-7,11-8c11-7,24-10,33-20,4-4,3-12,8-15l5-4c2-3,0-8,2-11,3-4,4,2,3,5-2,9,3,19,13,20l15,1,9,1,10-4c11-7,25-10,35-19,4-5,1-12,4-17,2.7-4,6.7-5,12-3l11,5c6,3,14,0,16-7,.7-2-.3-4.3-3-7-4.7-14-8.7-28.7-12-44,0-6,15-11,20-14,4-1.3,8.7-1.7,14-1,7.3,0,14.7-1.7,22-5,1.3-1.3,2.3-3.7,3-7l2-3,7-4c2.7-2,3.7-5.3,3-10,0-2.7,1.7-4.3,5-5,8-1,29,6,29-7s3-20.7,9-30l19-18c3-4,10-9,9,0-2,14,8,16,18,18l3,2c5.3,8,12.7,13,22,15,7,0,7-8,12-11,3.3-2,7-2.3,11-1,11,4,24,15,16,28-.7,2-.3,3.7,1,5,2,3.3,5,5.3,9,6,11.3.7,20.3-3.3,27-12,2-3.3,3.7-7.3,5-12,3-8,15-7,21-2,6,4,9,9,9,15-1.3,4-2,7.7-2,11,3,6,13,2,14,12-.7,8.7-3,16.7-7,24l-1,3v20l1,3c4,10,17,2,24-3,2-1.3,2.7-2.7,2-4-2-6-7-13-2-18,7-8,19-15,28-7l8,13c4.7,3.3,9,6.3,13,9,6,6,12,19,8,27-.7,1.3,0,2.7,2,4,3,3,8,6,5,10-4,8-7.3,16.3-10,25l-1,13c0,5.3,2.3,9.3,7,12,14,8,29,19,29,36l1,6c2,6,10,10,12,16,2,8-4,14-10,20-7,8,4,22,0,31-4,3.3-8.7,4-14,2-4-.7-7.3.3-10,3-4,8-4,18-9,23-5,6-14,4-19,9-8,8-8,31,8,23,6.7-4.7,13-9.7,19-15,8-8,20-9,30-13,2-1.3,3.7-3,5-5,2.7-4,6.3-4.7,11-2M407,894c6-6,13-14,24-14l4-1c2-3-1-7,0-10,0-6,10-5,11-10,1-8-12-14-10-23l-1-5c-2-2-2-4.3,0-7,5-7,19,0,23-9,1.3-3.3.3-6.3-3-9l1-5c2.7-3.3,4.7-6.7,6-10,1.3-4.7,1.3-9.3,0-14-1.3-6-1.3-11.7,0-17,1.3-4,1-7.3-1-10-4-2.7-9-4-15-4-2-.7-3.3-2.7-4-6l3-4,6,3c4,2,12,3,14-3l-2-7c-.7-1.3,0-2,2-2,19-2,20,2,37-9,2-1.3,3-1.3,3,0-.7,6-3.3,10.7-8,14l-11,7c-1.3,2-1.7,4-1,6,4,2,8.3,2,13,0,4-1.3,7.7-1,11,1,6.7,3.3,11,8.7,13,16,.7,2.7-.7,4.7-4,6l-8,3c-1.3,2.7-3.3,5.3-6,8-4,2-7.7,2.7-11,2-5.3,0-10,2-14,6-3,4-11,11-9,17,7,11,15,22,15,36l-1,3-2,2-4-1c-2-4-4.3-7.3-7-10-3-1-9,2-7,6,4,4,9,7.3,15,10,7,7,4,18-2,24-4,3.3-8.7,5-14,5-7,2-10,10-11,16"/>
    <path class="st5" d="M79,881c-3.3-6.7-8-13-14-19-3.3-.7-6-3-8-7-2-8-7.3-14.3-16-19l-23-14-6-1c-2.7-2.7-3-5.7-1-9,2-3,8-5,10-1,2.7,4.7,6.3,7.7,11,9,6-.7,11.3-2.7,16-6,4-2.7,7.7-4,11-4l35,2,6,1c3,0,9-2,11,2l2,6c1.3,2.7,2.3,5.3,3,8-.7,2.7,0,5.7,2,9,6.7,5.3,14,6.3,22,3,5.3-1.3,10-3.3,14-6,5-6,2-11,13-12,14,1,24,13,30,26,2,6,10,4,14,1,10-7.3,14.3-17,13-29l3-12c-2-3.3-5-6-9-8l-3-4c.7-2,2-2.3,4-1,5.3.7,10.3,2.3,15,5,10,5,4,18,1,26-5,12,6,17,15,23l2,2,1,6,1,3c3.3,2.7,6.7,2.7,10,0l7-5h3l9-1,5-4,13-7,5-2,7,1c3.3-2,6.7-3.3,10-4l4,2,14,5c2.7,0,4.3,1.7,5,5,2.7,4,6.3,6.3,11,7,.7.7,1.7,0,3-2,1.3-5.3,1.3-11,0-17l-5-2-5-2c-2.7-2.7-4-5.7-4-9,1-6,6-13,2-19-4-3.3-9.7-5-17-5-6.7-2.7-11.7-7.3-15-14-2-3.3-1.7-6,1-8,3.3,0,6,1.7,8,5l9,7c11.3,2,22.7,1.7,34-1,7,1,6,10,5,16-.7,2,0,3.3,2,4l12,3c5.3-2,10.7-4.7,16-8,6-.7,10.3,1.3,13,6,3,4,2,10,5,15l4,3c0,1.3-1.3,2-4,2-7-3-13,4-16,10-1.3,4-4,5.3-8,4-4.7-1.3-8-.3-10,3l-2,6c-3.3,6-5.7,12-7,18-1.3,1.3-3,2.3-5,3h-10c-3.3.7-6,0-8-2l-6-1c-3.3-2-7-4-11-6-6.7-1.3-13.7-1-21,1l-3,4c0,5.3,2,10.3,6,15,5.3,5.3,11,7,17,5l2-2c0-2,1-3,3-3,2.7-.7,6-.3,10,1s4.7,3.7,2,7"/>
    <path class="st0" d="M887,782c3-5,8-3,13-3,4-.7,6.3-3,7-7v-11l-2-4-5-6-8-4c-5.3-1.3-10.7-1.7-16-1l-6,2-7,1c-2,0-3.3.7-4,2l-2,5c-6,0-10.7-1.7-14-5-3.3-2.7-7.3-4.7-12-6-2.7,0-5.3,1-8,3-4,2-8.3,2.3-13,1l-3,1c-4.7.7-9,0-13-2-6-1.3-9.3-5-10-11-.7-2-1.7-3.3-3-4-6-1-10,0-14-6-4.7-5.3-8.3-11-11-17-1-2,2-6-2-7l-9-3-4-6c-6-4.7-12.7-6-20-4-3.3,1.3-7,2.3-11,3-8,5,3,16,2,23l-1,11,4,7c2.7,3.3,2.7,7,0,11-1.3,1.3-2,3-2,5,2.7,1.3,5.7,2.7,9,4l9,6c4.7,1.3,10,2.3,16,3l6,4,9,3c3.3,1.3,4.7,3.7,4,7l-1,6c1.3,4,2,8,2,12-1.3,6.7,2,10,10,10,4-.7,7.3,0,10,2,2,2,2.7,4,2,6l3,12c3,4,3,9,8,10,4.7,0,9,.7,13,2l13,5c4.7,1.3,9,2,13,2l4,1c3.3,1.3,7,2.3,11,3l12,7c4.7,2,9.7,2,15,0,4.7-3.3,7.7-8,9-14,0-4-.7-7.3-2-10l2-9v-6c4-6,13-8,16-15l2-4c.7-2,.7-4,0-6l-5-1-8-5c-3.3.7-6,0-8-2M1165,886c-5.3-2-11-4.3-17-7l-3-5c-2.7-8-4.3-16.3-5-25l3-12c2-8.7-.7-14.7-8-18-5-3-10,1-15-1-5.3-2-10.3-5.3-15-10l-6-3-2-4c.7-2.7,2.3-5,5-7,1.3-2.7,1-4.7-1-6-3-4-12-4-17-1-4.7,6.7-8.7,13.7-12,21-4,5.3-9.3,9-16,11-6.7,6.7-11.7,14.7-15,24l-3,4c-3.3,4-6.3,8-9,12-4,2-8,2.7-12,2h-10c-9.3,3.3-18,8.3-26,15-11,6-16,6-18,19M1084,673l1-8c1-8,6-15,7-23l-2-10v-9l-3-8c0-4-.7-7.7-2-11-6-13-9-24-22-31h-7l-9,2c-4.7,2-6.7,6-6,12l-2,10-5,7c-4,3.3-6.7,7-8,11l3,6c1.3,2,3.3,3.7,6,5l5,2c4.7,1.3,7,4,7,8l-2,7c-1.3,2.7-3,5-5,7-4.7,1.3-9.7.7-15-2-3-2-11-2-11,3l2,9,2,7c4,4.7,8.7,7.3,14,8,6.7,2,12.3,6.3,17,13l4,7c3.3,2,6,4,8,6l2,8c2,2.7,4.3,4.7,7,6l2,4-1,6,3,2c3.3.7,6.7,2.3,10,5,2.7,4,4,9,4,15l-4,2c-6-1-10,3-4,8,5,5,7,0,10-3,2.7-1.3,5-1.7,7-1l15,2c3.3,1.3,5.3,0,6-4l3-5,6-5c4-7-1-15,3-21,2.7-4,6.3-6.7,11-8l22-6c7.3-1.3,12-5,14-11,.7-3.3,0-6-2-8-7.3-9.3-16-17.7-26-25-2.7-.7-5-2.3-7-5l-9-9c-3.3-2.7-7-4-11-4l-7,3c-2.7.7-4.7,2.3-6,5-3,7,2,10-6,16-2,2-2.3,4.7-1,8-.7,2-2.3,3-5,3-6.7,2.7-10.7.7-12-6h-1Z"/>
    <path class="st1" d="M3,809l14-10,15-7c2.7,0,5,1,7,3,4,2,8,3.7,12,5,6.7,3.3,14,5,22,5l15-1,11,2c4-.7,7.3-1.7,10-3l8-1c3.3-.7,5.7-3,7-7,4-2.7,8-3.7,12-3,7-1,7,8,12,10,6.7,1.3,12,.3,16-3l5-2,6,3c1.3,1.3,2.3,3,3,5-2,8.7,1,15,9,19,3.3,1.3,6.7,3.3,10,6,2,2.7,4,6,6,10,4,4,11-4,11-8l-3-6c-2-2-3-4.7-3-8l2-9c-1-4-6-6-7-10l-3-12c-6-11,7-9,13-5l6,4c4.7,3.3,9.3,5.3,14,6l12,3h1c3.3.7,4.7,2.7,4,6l-1,10c-2,4.7-2.7,9-2,13l1,2c2.7-.7,5.3-1.7,8-3,4-1.3,7.7-2.3,11-3,2.7-3.3,4.7-6.7,6-10,3.3-3.3,4.3-7.3,3-12v-14c.7-3.3,2-5.3,4-6,16-6,23,4,32-4l5-8,7-10c6-7,10,0,13,5,3.3,3.3,7.3,6.3,12,9,7,5,15-2,23-1,8,2,18,8,26,2,2-4.7,5.7-7.7,11-9l7-4c5.3-2,10-5.3,14-10,4-4,1-10,4-15,6-8,14-13.7,24-17l6,1,18,3c4-.7,7.3-2.7,10-6l26-20c3-3,8-8,12-6,1.3,2.7,2,5.7,2,9,.7,4,0,7.3-2,10-5,7-13,13-15,22,0,3.3,1.7,5.7,5,7l9,8c4,2,9,10,13,6,2-4,8-8,8-13-2-5.3-1.7-10,1-14,6-5,14-4,21-5,5.3-1.3,7.3-4.7,6-10-4-4-7.3-8.7-10-14-1-5,4-9,4-14l-1-10c2-4,10-8,13-5s0,7,2,10l8,8c1.3,3.3,3.3,6,6,8,4.7.7,9,0,13-2,3.3-.7,6-1.7,8-3,2.7-2.7,6-5,10-7,4-.7,7.7-2.7,11-6l4-4,12-4c6.7-2.7,9.7-7.7,9-15-.7-5.3-.3-10,1-14,4.7-6,8.7-11.7,12-17,1.3-3.3,4-4.3,8-3,3.3.7,6.3,2,9,4,3.3,4,5,8.7,5,14-.7,4-.3,8,1,12,4,7,15,6,22,5,5.3,0,10.7-1.3,16-4,6.7-1.3,11.7-4,15-8l6-8c.7-6,.7-12,0-18,1-3,4-6,0-8-5-3-7,1-9,3-8,5-23-3-29-9-5-6,5-10,9-12,10.7-4.7,21-9,31-13,8-1.3,13,2,15,10l2,9c-1,3-7,5-8,8-2,6.7,0,9.3,6,8,5.3-2,10-4.7,14-8,4.7-2,7.7-5.3,9-10,1-7-8-10-13-14l-5-4c-9-4-9-14-1-19l19-13c4-3.3,8.7-4,14-2,7,2,15-1,22,0,6,2,10-.3,12-7l9-11c2-4,5.3-7.3,10-10l11-9c5.3-2.7,10.3-6.7,15-12,2-4,3.7-8.3,5-13,0-5.3,1.7-9.7,5-13,11.3-8.7,21.3-18,30-28,2.7-3.3,5.7-5,9-5,2.7-1.3,5-1.3,7,0l7,7c6,5,4,13,4,20s1.3,1.7,4,1c3-1,5-7,8-9,4-3,10-1,14-3l7-3,8-6,5-3,5-8c3-4,7-4,11-8,4-4.7,9-8.3,15-11,14.7-2.7,25.3-10,32-22,4-7,6-17,0-22-5.3-2-10.3-4.7-15-8-2.7-3.3-5.7-6.3-9-9-6-1.3-11.3-4-16-8-4-4-3.7-7.7,1-11l7,1c7,1,16,4,16-7l1-11c1.3-3.3,3.3-6.3,6-9l2-1c3.3.7,4.3,2.3,3,5-2,4-7,6-4,11,3.3,5.3,8.3,7.3,15,6h13l10-2c2.7-.7,5-.3,7,1s2.7,3,2,5c-1,10,7,7,8,14,1.3,4.7,4.3,8,9,10,3.3,2.7,6.3,2.7,9,0,3-4-2-9-1-14,0-7,10-10,8-18-2-3.3-5.3-5.7-10-7-2.7-2.7-4.3-5.7-5-9-2-6-5-11-9-15-2.7-4-6.7-7.7-12-11-3.3-3.3-5.7-8-7-14-.7-4-1.7-7.3-3-10-2-13,11-16,12-25-.7-2.7-1.7-5.3-3-8l1-4c1.3-2.7,3-4.3,5-5l11-6c4-.7,7.7-3,11-7l4-5c4,0,7.7.7,11,2l9-5c3-2,6,0,9-2,8-4,11-10,9-18l-8-8c-5-6-7-13-14-17-6-3-4-6-2-11l1-5,6-12c2-4,4.7-7.3,8-10,5.3-2.7,9.3-6.3,12-11,.7-5.3,1-11,1-17l3-9-1-7c0-3.3.7-6.3,2-9l2-6c2-7,9-11,12-18l-2-5c-2-5-8-12-3-17,2.7-2.7,5.3-4.7,8-6l2-4"/>
    <path class="st0" d="M1054,736c2-2,4.3-4.3,7-7,2.7-4.7,1-8.7-5-12-4.7-2.7-9.7-4.7-15-6-3.3,0-6-1.3-8-4-10-14,2-17-8-22l-15-9-3-6-1-10c-3-11-13-3-17-12-2-6,6-10,5-15-1-4-6-7-4-11,2-2.7,4.3-3.3,7-2,3.3,1.3,6,3.3,8,6l2,3c2,5.3,5.7,7.3,11,6,5-1,11-1,5-7-3.3-2.7-7.3-4.7-12-6-5-3-2-8,0-12l1-13c.7-2,2.3-2.7,5-2,7.3.7,11.7-2.7,13-10,.7-8,4-14.7,10-20,4-2.7,5.3-6.3,4-11-2-6,6-8,10-10s3.7-3.3,3-6c2-3.3,5-5,9-5,4-1,10-3,12,2,2,4,0,8,2,13s5,9,0,14c-2,2.7-2,5,0,7l5,6c2.7,2.7,4.3,6.7,5,12l3,9c2.7,2.7,4.3,6,5,10l-1,4c1.3,3.3,1.7,6,1,8l-1,8c0,4.7,1.3,8,4,10,4,4,9-1,13-1l9-1,5-1c4,.7,7.3,2.3,10,5l4,6,3,3,8,11,14,10,7,8c2.7,3.3,6.3,5.3,11,6,6,5,3,14,1,20s-7,5-12,6l-11,5c-5.3,2-9.7,5-13,9-2,3.3-1.7,6.3,1,9s6,4,10,4c4,1,11,2,10,8l-3,7,1,9c.7,3.3,2.3,6,5,8,2.7,3.3,4,7,4,11,2,8.7-1,14.3-9,17-6.7,4.7-12.7,4-18-2l-4-10-8-12c-3.3-2.7-7-4.3-11-5l-15-3c-6-2-11.3-1.3-16,2-4,3.3-8.7,5.3-14,6l-6-2-6-3c-2.7-1.3-4-3.7-4-7l-4-7c-1.3-3.3-3.3-6.7-6-10l-3-6ZM889,607c2-3.3,2.7-6.3,2-9-1.3-2.7-3.7-4.3-7-5-4,0-8,5-13,4-2.7-1.3-4.7-3.3-6-6-2-3.3-5.3-5.3-10-6l-4-1c-6-1-4-7-7-10s-4-2.3-6-1l-5,8c.7,1.3,1.7,3,3,5,.7,2.7.3,5-1,7-2.7,4.7-3.7,10-3,16l-6,17c-1.3,7.3-5,11-11,11l-7-3c-12-5-25,0-28,13,.7,3.3,2.7,5.7,6,7l4,6,1,4c4,2,7.3,3.7,10,5,2,2,2.3,4.3,1,7-4,4-8,8.7-12,14l-1,11c.7,5.3,3,9.3,7,12l25,11,8,6c6,3,11-1,16-3l9-5c3.3-4,7.3-5.3,12-4,13,6,15-3,22,0,3,2,5,7,9,5s9-3,15-3l6,2c1.3.7,2.3.3,3-1v-8l1-11c0-4.7-1.3-8.7-4-12-2-2-4.7-2.7-8-2-2-.7-1.7-2,1-4,4-1.3,7.3-3.7,10-7,1.3-4,2-8,2-12s-2-7.3-6-10l-5-4-5-2c-3.3-2.7-5-5.7-5-9-2-9,4-22-6-26-2.7-.7-4.7-1.7-6-3l-1-4Z"/>
    <path class="st5" d="M75,881c-14-27-28-11-28-23s2-10-2-14c-11.3-9.3-23.7-16.7-37-22-2.7-1.3-3.7-4-3-8l3-3c6-6,14-13,21-7,4,5,2,14,10,9,18-9,39-4,58-2,6,0,11-4,17-2,2.7,1.3,3.7,4,3,8,3,7,3,15,8,20,6,5,15,2,21-1,6.7-4,6.7-7.7,0-11-16-5-8-10-17-21,2-2,4.3-2.7,7-2,4.7,3.3,10.3,5.7,17,7,7-2,10,6,15,10,8.7,4,16.3,9.3,23,16,4,4,5,13,13,13,7,1,13-7,16-14v-12c2-12,0-15-9-23-4-4-4-13,4-10,2,2.7,4.3,4.7,7,6l9,3c18,5,9,22,5,35,0,7,9,16,17,11,5-2,8-9,14-10,1.3-.7,3-.3,5,1,6,4,14,9,22,6,12-4,24.3-5.3,37-4,3,0,8,3,11,0,2.7-7.3,3-16,1-26l-2-3c-4-2-8.3-3.3-13-4-6.7-3.3-12.7-8.3-18-15-4-3,13-28,17-21-1,25,16,27,37,19h5c7,2,15-1,21,4,4,5,2,12-5,11-3.3.7-4.3,2.3-3,5,3,5,7,2,10-1,9-7,21-3,27,4l3,8c3.3,4,7.7,5,13,3,6-.7,10.7-2.7,14-6,2-4-1-10,2-14,3-6,10-10,10-18s-5-15-4-23c3-8-8-11-13-8-6,6-11,14-20,14-2.7.7-4-.3-4-3,2-2.7,4.7-4.7,8-6,17-8,7-13,11-23,15-24,35-2,54-14,9-5,16-16,26-17l-1,1c-2-.7-2.3-1-1-1,6-2,3,6,1,9-5,6-13,11-13,20,7,14,24,22,29,38,2,8,13,9,20,5,2-2,2.7-4.7,2-8-2-10,16-13,11-23-3-4-13-9-7-16,9-11,26,2,27-21,1-5-7-5-9-9-3-4,3-7,6-5,15,6,34,9,46-5,3.3-3.3,7-5.3,11-6,9-8,22-11,30-19,1.3-5.3,3-10,5-14,2.7-1.3,5-3.3,7-6,3-5-3-14,4-16,17-2,5,21,13,25,20,13,46-1,66-11l4-4c2-4-1-9-1-14,4-12,22-9,32-6h2l-1-1,1,1c12-21,1-30-7-49-6-17,17-21,30-20,11,0,26,4,30-11,1-5,6-4,9-7,6-6,8-18,18-19,4,0,7,4,11,3,9-1,9-7,9-14l7-22c3.3-4,7.3-8,12-12,6-7,9-19,20-19,7-1,10,7,8,13-4,11,12,15,20,10l10-7c1.3-2,3-2.7,5-2s3.3,1.7,4,3c14,28,41,15,45,39,1,3-4,9,1,10,7.3,2,14.7,1.7,22-1,2-1.3,3-3,3-5,2.7-6.7,7.3-12.3,14-17,11-6,23,7,27,17,1,4-3,11,3,14,5,3,13,4,14,11,.7,2,0,3.7-2,5-5,3-2,10-3,15-2,1.3-3.3,3-4,5v3c2,7-7,24,0,26,6,1.3,10.7-.7,14-6,5-7-6-13-3-19,6-9,19-9,27-16,10-6,27-17,5-24-18-10,9-12,7-27l-1-9c1.3-1.3,2.3-3,3-5,2-9-5-17-9-25l-11-21c-1.3-3.3-1-6.7,1-10,0-8.7-3-16.3-9-23-7-7-14,2-18,8-3,5-10,3-12-2-3-5-3-13-10-15-6,1-10,8-15,12-3,2-11,3-9-3,2-7,15-11,15-18-2-4-2.3-8.3-1-13-.7-4-2.7-6.7-6-8-11.3-6.7-21.7-14-31-22-2-2-1.7-3,1-3h1l-1,1c-4,0-4.3-.3-1-1,11.3-3.3,22.7-5,34-5,7,1,14-1,20,3,4,4,10,8,5,14-2.7,8,0,14.7,8,20l5,1,24-8c7-2,13-10,9-17-2.7-2.7-2.7-6,0-10l1-13c5-18,7-17-12-27-6-4-15-6-19-13,0-2.7-.7-5.7-2-9-9.3-4-14.3-10.7-15-20,0-18,17-12,14-29-1.3-2-1-4.3,1-7,6-9,17-8,26-8l5-3c6.7-2,13-4,19-6,6-4.7,10.3-10.7,13-18,1.3-8.7-1-15.7-7-21-5-7-5-16-10-22-2-2-2.7-4-2-6,.7-4.7,3-6.7,7-6,2.7,2.7,5.3,4.3,8,5,20,0,15,11,11,25-1,10,8,18,11,27,8,13,34,18,48,23"/>
    <path class="st1" d="M532,893l-3-8c0-5,11-12,15-17l2-3c3.3-5.3,7.7-9.7,13-13,3-3,8-6,5-11-4-4.7-7.3-9-10-13l2-9c1.3-8.7,6.3-14.3,15-17l5-1c21,3,32,9,46-12l6-14c1.3-2,2.3-3.7,3-5,2-12-7-21-16-26-6.7-3.3-7.3-7.3-2-12,6.7-3.3,12.7-7,18-11l5-8,11-21,2-3c5.3-3.3,11.3-5,18-5l3-2,12-6c9-6,5-13,19-7l5,3c20,14,43,10,65,13,2,0,3.3,1,4,3,5,7-7,18,0,25,6,5,14,4,21,8,3.3,2,6,4.3,8,7l4,6c4,3.3,9.3,5,16,5h6l14,1c7-2,12-7,19-7,19.3,2.7,37,8.3,53,17l5,2,7,2c4,4,4,8.7,0,14-2,1.3-4,3.3-6,6l1,2c5,5,11,13,5,19l-6,4c-4,7.3-9.3,13-16,17-2,.7-3.3,1.7-4,3-2,6-3.3,11.7-4,17-.7,8,.3,15.3,3,22,2,2,4.3,3.7,7,5,2,2.7,2,5.3,0,8-5,2-10-3-14-3s-9,4-14,4l-5-1c-6,1-12,6-18,3-10.7-8-22.3-10.7-35-8-5,1-5-5-9-6-3.3,0-6-.7-8-2-.7-2-1.7-4.3-3-7-2.7-1.3-5.3-2.3-8-3-11-2-10,12-19,8-5-3-11-9-15-5-7,7-2,18-4,27-1.3,4.7-4.3,5.7-9,3-9-2-18,2-27,2l-4,2c-4,4-10,9-15,5-4.7-4.7-5.3-9.7-2-15,3.3-2.7,6.3-5.7,9-9,2-5-3-10-2-14,1.3-2.7,3.3-5,6-7,6-8,1-19-5-27-2-2-4.3-2.3-7-1l-5,7-11,10-1,6,1,4c-1,5-7,4-10,2l-1-2-4-5c-6,0-11,2.3-15,7-6,8-7,18-15,24-9,5-20-10-27,1l-1,3v18"/>
    <path class="st0" d="M1180,770c2-2,4.3-4,7-6,4-4-2-8-5-11-2.7-.7-4.7-2-6-4-3-4,5-8,3-12-1.3-4-4.3-5.3-9-4h-7c-3.3-.7-6.3-2-9-4-2-5,3-10,7-12l5-3,7-3c5-2,12,1,15-5l5-12c-.7-6.7-3.7-11.7-9-15-2-.7-4.3-1.7-7-3l-4-4c-2-3.3-5.3-6-10-8l-5-4-9-10-5-7c-2-6.7-5.3-12-10-16-3.3-.7-6-.3-8,1l-15,4c-6.7,2.7-10.7.7-12-6l2-9v-9c1-6-5-10-7-15l-1-8-4-12-2-6v-8c0-4,6-6,6-11l-5-6-3-12-2-4c.7-2,0-4.3-2-7-2.7-3.3-6-3.3-10,0l-4,8c-1.3,2-3.7,3-7,3-6,1.3-11,4-15,8l-3,2-6,2c-3.3,3.3-4.7,6.7-4,10l3,5c1.3,1.3,1.7,2.3,1,3-1.3,2.7-3,4.3-5,5l-3-2c-4-4-8.7-5.3-14-4-2-.7-3.3-2.7-4-6l-2-6c-2.7-3.3-6.3-7-11-11l-6-3h-10l-5-2c-2.7-2.7-3.7-6-3-10,2-3.3,1.7-6.3-1-9-6-2.7-12-3.7-18-3h-5c-4,1-3,7-4,10l-3,6-4,11-1,10c-2.7,9.3.7,14,10,14,4.7-.7,9,.7,13,4l8,7,4,3c2.7.7,5.3.3,8-1l9,2c8.7,2.7,14,8.7,16,18v4c2,4,2.7,7.7,2,11-2.7,4.7-6,7.3-10,8-3.3,0-6.7.7-10,2-1.3,2.7-3.3,5.3-6,8-1.3,2-2.3,3.7-3,5,1.3,4,3,7.3,5,10,1.3,6,3.7,10.7,7,14,3,2,9,0,11,5,3,10-7,14-4,20,8,11,16-2,25,7s3,4.3,3,7v14c1.3,2.7,3,4.7,5,6h6c4.7.7,9.3,1.7,14,3,3.3,1.3,6.3,3.3,9,6,.7,1.3.3,3-1,5l-7,2c-1.3,2.7-2.3,5.7-3,9,.7,3.3,2,5.3,4,6,4,2,6.7,4.7,8,8s2.3,7,3,11c-.7,4,1.3,6.3,6,7l8,1,5,1c2.7,1.3,6,.7,10-2l8-5,7-2,16,4,9,2,6,6,7,7,2,6c1.3,8,5.3,12,12,12,6.7-1.3,12-3.7,16-7,5.3-3.3,7.3-7.7,6-13l-1-11Z"/>
    <path class="st0" d="M1243,517c-6.7-2.7-13-2.7-19,0-12,4-22.3,10.3-31,19-1.3,1.3-2.7,3.3-4,6-2,1.3-4,3.3-6,6-1,5,5,6,8,8l4,6,2,7c1.3,2,1.7,4,1,6-1,4-7,5-10,7-6,5,4,9,5,14,1,6-11,3-1,13,4.7,3.3,5.7,7.7,3,13-2.7,2-5,4.7-7,8-2.7,6.7-3.7,13.3-3,20,1.3,6.7,5.3,11.7,12,15,13.3,11.3,21.3,25.3,24,42,1,3,6,6,7,9,2.7,4.7,5.7,9,9,13,0,2-1,3.7-3,5l-9,8c-2,4-2.7,8.7-2,14,1,7,6,13,4,21-4,15-27-4-31,8l-1,3-4,12c-1.3,1.3-1.7,3-1,5,3,6,15,1,20,0l9-2,3-4c4.7-4,10.7-4.3,18-1"/>
    <path class="st5" d="M757,786l3,7c3,6,3,14,12,16l7,1,4,2c1.3,1.3,1.7,3,1,5l1,9c-1,3-4,7-1,9l3,2c4.7,4,10,5.7,16,5h7l3,3c4,2,8.7,2.7,14,2h4l6,2c5.3,1.3,10.7,2.3,16,3,4,.7,7,2.7,9,6,3.3,4.7,8,5.7,14,3,6,0,10.3-3,13-9l3-13c-.7-3.3-1-6.3-1-9,.7-2,1.7-3.7,3-5l1-7c0-2,1-3.7,3-5l7-4,4-4,4-7,4-3c3.3-2,4.3-4.3,3-7,.7-2,0-4-2-6-2.7-.7-5-2.7-7-6v-5l1-7c1-2,4-5,1-7l-11-8c-3.3-2.7-7-4.3-11-5-5.3-1.3-10.7-1.7-16-1l-11,2h-24c-4-1.3-8-2-12-2-3.3,1.3-7,2.3-11,3l-7-2-9,2c-3,0-8-2-7-6s4-8,0-11c-2-1.3-4.3-1.7-7-1l-12,1-6-4c-3-4-9-8-8-14,1-4,9-5,5-11-3-4-9-2-13-4l-5-4c-8-4-16.3-6-25-6l-5,2c-4-.7-7.7,0-11,2-3.3,2.7-4.3,6-3,10,1,5,6,10,5,15l-2,10v4c.7,2.7,2,5.3,4,8v3l-4,5c-2,2.7-2,5.3,0,8,3,4,9,2,13,4l12,6c5.3,1.3,10,3.3,14,6,3.3,3.3,7.3,6,12,8,3.3,2.7,3,5.7-1,9"/>
    <path class="st1" d="M925,892c-5-8-17-9-14-15,2-3.3,2.7-7,2-11l-5-10c-1.3-4.7-3.7-9-7-13-1.3-3.3-1.7-6-1-8l4-13,5-5,9-7,6-9,7-5c3.3-4,3.7-8.3,1-13-1-3-5-5-3-8l7-7c2-5.3.7-10-4-14l-8-4c-6.7-2.7-13.3-5.7-20-9l-14-5c-13-6-27-11-41-2l-6,3c-3,1-7-2-3-5l13-6c5.3-2.7,10.7-3.7,16-3,5.3-.7,10.3-.3,15,1,3.3,2.7,7,5,11,7,5,1,6-4,9-5,4.7-2.7,8.7-2,12,2,3,3-1,5-1,8,1,5,8,4,11,2,2-1.3,4.3-2.3,7-3,8.7,1.3,16.3,5.3,23,12,.7,3.3,2.3,5.7,5,7,6,3,12,2,12,11-2,9-17,11-23,15-5.3,2.7-9.7,6.3-13,11l-4,10-4,3c-4,2-6.7,4.7-8,8l-1,8c-1,7-6,3-11,5-1.3,1.3-2.3,3-3,5-2,11,5,19,13,26,2.7,1.3,4,3.3,4,6,3,10-3,27,10,29,4-.7,7.3-1.7,10-3l11-4,8-9c4-3,11-1,15-5,9-6-6-14-2-21,2-2.7,4.3-5.3,7-8l4-2,19-6c8-2,8,5,12,5l13-2c8,0,6-7,10-11l13-17c2.7-1.3,5.3-2.3,8-3,8-6-4-11-2-17,4.7-8.7,1.7-12.7-9-12h-6l-7-4c-5-2-11-6-7-11s2-12,2-18l1-11c0-4.7,1.3-8.3,4-11,2.7-.7,5,.3,7,3,.7,5.3.3,10-1,14-.7,4,1,7,5,9,10,3,9,14,10,23,1.3,3.3,4.3,5,9,5l15,2,5-1c6-4,12.3-6.7,19-8,6-2,13,2,20,4,8,3.3,14,8.3,18,15l2,9c2.7,7.3,8,9.7,16,7l16-1c3.3,0,6-2.3,8-7,1.3-3.3,2.3-7,3-11,2.7-10.7,9.3-18,20-22,4-2.7,5.3-6.3,4-11v-7c5-7,14-11,13-20-1.3-4.7-4-8-8-10-5-2-11-6-7-12,6-8-3-16-11-21l-4-5c-2.7-2-5.3-2.7-8-2v3c6.7,6,9.3,13.7,8,23-3,18-26,9-37,22-2.7,2.7-2.7,4.7,0,6h4l18-1,4-1,9-10c7.3-6,14.3-5.3,21,2,5,4,10,14,2,18-4.7,1.3-9.3,3-14,5-2,1.3-2.3,3.7-1,7,2.7,5.3,1,9-5,11l-5,6-2,3c-12,4-1,20-10,26l-10,6"/>
    <path class="st0" d="M1169,801l-1,1M723,889c8-5.3,16.3-6.3,25-3,7,2,15-4,16-11l-1-3c-3-3-5-10-3-13,4-2.7,8-2.7,12,0,6.7,6,13,11.3,19,16h11l35-6c8,3.3,16.3,6.3,25,9,2.7,2,4.7,4.3,6,7l3,1c6-1,5-8,10-10,3.3-2,7-3,11-3,4-.7,6.7,1,8,5l-3,3c-2.7,3.3-4,7.3-4,12M1245,128c-5.3-6-11.3-9.7-18-11l-15-4c-2.7-3.3-6-4.3-10-3-4.7,2.7-7.7,6.3-9,11l1,2c4.7,6.7,5.3,13.7,2,21l-4,13-1,2c1.3,6.7,4,12.7,8,18,1.3,2.7,2.3,5,3,7,11,13,29,17,45,20M1244,61c-3.3.7-5.7,2.3-7,5-.7,2-.3,4,1,6,1.3,4,.3,6.7-3,8-8,2-10.3,6.3-7,13,3.3,2.7,7.3,4.7,12,6l5,2M991,798l-2-6c-2-1.3-4-3.3-6-6-1.3-1.3-2.3-3-3-5-2.7-2.7-5.7-3-9-1-2,3.3-5.3,5-10,5-8-2-13.7,1-17,9-3,6-2,14,5,16,4,1,8-2,11-1,2.7,0,5,1,7,3,4,1.3,5.3,3.7,4,7-4,4-8,4.7-12,2l-4-5h-6c-6,1.3-10.3,5-13,11-2,3.3-4.3,5.3-7,6-4.7.7-8.3,2-11,4-1.3,5.3-.7,9.3,2,12,3.3,2,6.3,4,9,6l2,6c.7,2,2.7,3.7,6,5,4,0,6-2,6-6s1-5.3,3-6l12-3c2.7,1.3,4.7,1,6-1l-1-6c-.7-4.7,1.3-7,6-7,2.7-1.3,4.7-3.3,6-6,2.7-3.3,6.7-5.7,12-7h32c3,1,8,5,10,1,2-5.3,1.7-10.3-1-15-.7-2.7-.7-4.7,0-6l10-4,6-3,5-3c2.7-2.7,3-5,1-7-2-2.7-4.7-4.3-8-5l-11-1c-5.3,0-9,2-11,6-5,11-19,8-29,11M818,653l-6-7-7-4c-2.7-2.7-5.3-4-8-4-3-1-9,2-8,6,.7,2,2,4.3,4,7,1.3,2.7,3,5.3,5,8,4,5,10,6,11,13-.7,4-2.7,7.3-6,10l-4,5-4,7v5c0,11,12,12,19,16,4.7.7,9.3,2.3,14,5,2,1.3,4.7,2.3,8,3l9-3c4.7-3.3,9.7-5.7,15-7,9-2,12,1,21-5,1.3-1.3,1.7-3,1-5l-2-5v-7c-2.7-8,.7-11.7,10-11,2,.7,4,1,6,1l4-4,10-12c4-5-7-7-10-10-2-4-2.7-8.3-2-13l-2-12c0-3.3-1.3-6-4-8-3.3-2-6.3-4.3-9-7l-4-4-5-3c-4.7-2-9-4.7-13-8-2-2.7-5-4.7-9-6-6-.7-10.3,1.7-13,7v9l-4,7v9c.7,6-1.3,11.7-6,17-2,5-3,10-11,10"/>
    <path class="st0" d="M1210-2l-5,13v4l2,2,4,5c4,2,9,0,10,6l-1,8-1,3-4,1c-4,0-7.3,1-10,3l-5,5-4,5c-.7,3.3-.7,6.3,0,9,0,4-3,8-1,11l2,7c2,5-4,7-7,10-1.3,2-2.3,4.3-3,7-3,6-11,9-13,16-2,6,6,5,10,4l6-5c4.7-4,10-6.7,16-8,6-1,10,4,15,7l14,4c.7,1.3,2,1.7,4,1,2,0,3-.7,3-2h-2,2l-1-1-13-12-7-8c-2.7-5.3-2.7-10.3,0-15l6-7c.7-3.3,2.3-6.7,5-10,3.3-2.7,7.3-4.3,12-5M1055,637v1"/>
    <path class="st1" d="M1053,640l-5,6-2,7c-2,2.7-4.7,4-8,4h-7l-3-2c-6-2.7-8.3-.7-7,6,1.3,5.3,4.7,8.7,10,10,4,2,8,4.7,12,8,5.3,4,8.3,7.3,9,10l4,4h9l2,2v9c0,4,6,4,9,7l1,6c2.7,4,5.7,7.7,9,11,7,9,0,18,16,22,6,2.7,10.7,1,14-5,2.7-2,5-4.3,7-7,2-2,2.7-4.7,2-8s-.7-6.7,0-10c4.7-6.7,11.3-10.7,20-12l9-3c8-.7,14.3-3.3,19-8l1-6-3-4c-2.7-3.3-5.7-6.3-9-9l-4-2-2-3c-2-4.7-5.7-8-11-10-2.7-.7-5-2.7-7-6-3.3-5.3-8-8.3-14-9l-9,3c-2.7.7-4,2.7-4,6v6l-3,9c0,4.7-1.7,8-5,10-2.7,3.3-6,5-10,5l-9-2h-7c-.7-2-.7-4.3,0-7,2.7-4.7,4-9.7,4-15l3-13v-10c-.7-2.7,0-5.7,2-9,1.3-2.7,1.7-5.3,1-8l-4-7-1-12-10-19c-6-8-14-10.3-24-7-5,1-4,5-5,9l-2,11c-1,6-8,9-9,15-.7,4.7,1.7,8,7,10l6,2,4,3,5,7"/>
    <path class="st0" d="M1055,636v1"/>
    <path class="st5" d="M1249,300l-16-11c-5.3-3.3-10.7-2.7-16,2-4,5.3-9.3,10-16,14l-4,2c-7,7-4,18,4,23l14,4c2.7-.7,5.7,0,9,2,8,7,10,19,17,28v5c1.3,2.7,3.7,5.7,7,9"/>
    <path class="st0" d="M1098,584v1"/>
    <path class="st1" d="M1098,587l1,7c2,5,7,8,7,14l-3,15c-1.3,6,1,8.3,7,7l10-3,9-4,9-1,8,1c3.3,0,5.3,1.7,6,5l-4,4c-1.3,2-1.7,4.3-1,7,2,4,4.3,8,7,12,5.3,6,11.3,11.3,18,16l3,2c2,3.3,4.3,5,7,5v-1l-3-4c-1.3-3.3-3-6-5-8-3.3-.7-6.3-1.7-9-3-3-2-4-8-1-10s8,0,10-4l2-3,4-6c.7-3.3,1.7-6.3,3-9,2.7-4,4-8.3,4-13l-5-6c-5-6,0-14-3-21l-4-6c-2-3.3-5.3-6-10-8-3.3-.7-6-2.3-8-5l-5-8c-2.7-3.3-5.7-5-9-5-2.7.7-4.7,2-6,4-3.3,1.3-6,3.3-8,6-.7,2.7.3,5.3,3,8l5,3v6c0,3,5,8,2,10-3.3,0-6.3-.3-9-1-4.7-2-8.7-1-12,3,0,2,1.7,3.3,5,4,4.7.7,8.7,3,12,7,1.3,2.7,1,5-1,7-2.7,3.3-6.3,5.7-11,7l-6-1-1-3-1-10-2-6c-4-4-10-3-13-8"/>
    <path class="st0" d="M1099,589"/>
    <path class="st5" d="M1082,742c-3,4-11,3-11,9,1.3,4.7,4.3,8.3,9,11,3.3,2.7,6.7,2.7,10,0,6-5.3,13-6.7,21-4l6,1c1.3.7,3,.3,5-1,4,0,8,.7,12,2l6,2c2.7,2,4.3,4.3,5,7l7,14c2.7,4.7,6,6.7,10,6,4,.7,6.3-.3,7-3,0-2.7-.3-6-1-10l-3-7c-4-5-4-12-8-18-1.3-1.3-3.3-2.7-6-4-3.3-3.3-7.3-6-12-8l-5-4c-2-2.7-2.7-5.7-2-9,.7-7.3,5-11.7,13-13l15-4,14-5c4.7-2,6.7-5.3,6-10,2-6-3-8-6-11l-3-4c-2.7-4-6.7-7.7-12-11l-21-20c-2.7-2.7-6-4.7-10-6-5.3-2-10.3-1.3-15,2-4.7,1.3-7.7,4.3-9,9l-1,8c-2.7,2.7-6,3.7-10,3l-2-3c0-6,5-11,5-16s-1-8.3-3-13c0-4.7-.7-10-2-16,0-4-.7-8-2-12l-8-17c-2-4.7-5.3-8.7-10-12l-4-4c-1.3-4-2-8.3-2-13-2.7-4-6-5-10-3-3,3-1,9-2,12,0,5-8,4-11,7-6,5-2,14-5,20-3.3,6.7-8,11.7-14,15-3.3,4.7-2.7,8.7,2,12l12,10c4.7,2.7,6,6,4,10-2,4.7-5.7,6.3-11,5l-6-3h-9c-2.7.7-5,2-7,4-.7,1.3-.3,2.7,1,4l2,4c3,6,3,13,8,18,4.7,3.3,10,5.3,16,6,5.3,2.7,9.3,7,12,13l2,7c4,2,7,4.3,9,7,.7,2,1.7,4.3,3,7,2.7,1.3,5,3.7,7,7-.7,3.3-.3,6.7,1,10l6,4c4,1.3,6.3,4,7,8"/>
    <path class="st0" d="M650,756c-2.7.7-4.7,2-6,4l-2,3-6,12c-2.7,2.7-4,6-4,10v6l-2,3-10,11-7,11c-3,7,12,3,15,3h6c4.7-1.3,9.7-1.7,15-1,4,.7,8,0,12-2s8,1,11-1c3.3-2,5.3-4.3,6-7,0-3.3.3-6.7,1-10l4-3c4-3.3,7.3-7.3,10-12,3-5-4-9-3-14l1-6-2-8,3-6c2-8-9-8-10-17,0-14-17-12-9-28,1.3-2,2-4,2-6-1.3-2-3.7-2.7-7-2-3.3,1.3-6,4-8,8-6,2-9.7,6-11,12l-1,12-2,3-5,2c-2,2-2,4.3,0,7,3.3,4.7,6.3,10,9,16M1152,887c-8,1-11-8-13-15-4-9.3-5.3-19.3-4-30,.7-2,.3-4.3-1-7-5-8-15-10-24-15l-8-7c-14-8-17-7-30,3l-11,6c-10,6-11,19-11,30-1,8,5,15,8,23l2,5,5,12,87-5Z"/>
    <path class="st1" d="M805,660c-2.7-.7-5-2-7-4l-2-9c-2-2-2.3-3.7-1-5,2-.7,3.7-.3,5,1l5,3c4,1.3,5.7,3.3,5,6-1.3,4.7-1.3,9,0,13s1.7,7.7,1,11l-4,5c-4,4.7-7,9.3-9,14,0,6,2.7,10,8,12l21,9,9,2c3.3,0,6.3-1.3,9-4l9-2,13-4c4-1.3,6.3-3.7,7-7,1.3-4,2-8.3,2-13-1.3-2.7-1-4.7,1-6,4-6,12-5,18-9,2.7-2,4.7-5,6-9,.7-2,0-4-2-6-4-3.3-5.3-7.7-4-13,.7-5.3,0-10.7-2-16-2-4-5-7.3-9-10-2-2.7-4.3-4.7-7-6l-6-3-9-5c-5-3-11-10-17-5-4,2-2,7-3,10-.7,2.7-2,5.3-4,8-2,7,2,15-2,22-3.3,6-8,11.3-14,16l-6,4-5,1"/>
    <path class="st0" d="M1249,278c-14-8-31-2-47-5-8.7-1.3-16.7-4.7-24-10-6.7-6-9.7-13-9-21,2-9,14,0,12-15-1-7-5-24-16-20l-6,4-5,2-22,8-6,1c-6,2-1,9-3,14-4,5-12,6-15,12-.7,10,3.3,16.7,12,20,2,.7,3,1.7,3,3-.7,4.7.3,9,3,13,2.7,2,6,2.7,10,2,10,1.3,17,6.3,21,15,2,8,4,15-2,22v5l2,4,1,6c1,6,3,10-2,15-2,2.7-3,5.7-3,9-.7,1.3,0,2.3,2,3s3.3,0,4-2c2.7-5.3,6.7-8,12-8s7,1.7,9,5c8.7,9.3,15.3,19.3,20,30l1,10c0,6,5,14,2,20-4.7,1.3-8.3,3.7-11,7l-4,6c-2.7,3.3-5.7,4.7-9,4-2-2-3.3-4.7-4-8-3-8-15-2-20-7-7-8-1-19,4-27l1-4c-2-4.7-4-9.3-6-14-.7-8-5.3-11.3-14-10-6.7,0-13,1.7-19,5-8,4-18,0-21-7-4-8,4-19-4-27-4-2.7-8-2.3-12,1-2.7,2.7-5.3,3-8,1-6-2-14-5-20-1-1.3,1.3-2,2.7-2,4,6,6,12.3,10.3,19,13,21,9,7,18,15,27l8,5c5.3,3.3,8.7,7.7,10,13l3,3c8,1,9-14,18-13,15,5,14,24,18,36l8,22c3,7,11,11,14,19,2.7,3.3,3,6.7,1,10v5c3,3,11,2,12,7,3,8-15,1-17,11-.7,4.7,1.3,6.7,6,6l7-6,3-2,2,2c2,6,5,11.3,9,16,1.3,2.7,2,5.3,2,8l1,1,5-5c.7-2,2.3-3,5-3l12-1c9-4,18-8,28-2"/>
    <path class="st0" d="M1249,290c-2,.7-4,0-6-2-19-14-25-10-41,6l-14,13-7,8c-4.7,10-4,19.3,2,28,6,8,18,9,26,3l4-2c10,0,14,10,14,18s-1,5-3,7c-8,7,2,23,5,32,.7,2,1.7,2.7,3,2,5-4,9-10,16-6"/>
    <path class="st1" d="M1243,432c-3.3,0-6,1.7-8,5-8,10.7-17.3,21-28,31-5,5-1,9,0,14,0,10,4,21,14,23,5.3,1.3,10.7,2,16,2l3,2q0,.7,0,0h0l-2,1c-2.7,0-5.7-.7-9-2l-4,2c-6.7,4-13.3,4.3-20,1l-4-1c-4.7-.7-8.7-2.7-12-6v-6c-.7-6.7-4.3-11.7-11-15-2-2-1.3-3,2-3,5.3,0,10.7-.3,16-1,4-3-1-8-4-9l-15-1-4-2-9-8c-3.3-2.7-6-6-8-10-3-5,1-7,4-11,3-5-4-8-8-11l-1-1"/>
    <path class="st0" d="M1151,425"/>
    <path class="st1" d="M1153,425c5,2,11,1,14,5,4,4,2,10,6,13,2.7.7,4.7,1.7,6,3,2.7,4,6.3,6.3,11,7,4.7-.7,7-3.7,7-9-1-2-6-3-5-6,0-8,8-12,14-15,4-1.3,6-4,6-8s-5-9-7-15v-9l-2-6-4-8c0-1.3-1-3-3-5-5.3-3.3-9-8-11-14l-4-6c-5-3-17,4-17-6,2-3.3,3-6.3,3-9,0-4-5-6-5-10,1.3-4,2.3-7.3,3-10l-2-7-1-11c-4-7.3-9.3-13.7-16-19-5-4-13,1-17-2-2-3,1-7,1-11-1-6-13-2-11-9l2-5,7-4,4-2,5,4c7,4,4,12,5,18,2,9,11,4,17,7,3,0,6,7,10,4v-4l-6-3-1-5c-1.3-4.7-4-7.7-8-9l-2-1c-3-4,6-9,9-11,1.3-.7,2.3-.3,3,1,2,8.7,6.3,16,13,22,2,1.3,2.7,3,2,5-1.3,6-1.3,12.3,0,19,2.7,4,6,4.3,10,1l7-10c1.3-4,4-7,8-9,3.3-1.3,6.7-1.3,10,0"/>
    <path class="st0" d="M1215,276v1"/>
    <path class="st1" d="M1214,279c-4.7,0-8.3,1.7-11,5l-3,6c-11,12-26,19-27,36-.7,8.7,2,15.7,8,21l12,7c2,.7,3,2,3,4,2.7,4,6.3,5.3,11,4l3-3c1-2-1-10,5-9l5,3c3.3,3.3,3.3,6.3,0,9-2.7,0-5.3,1-8,3,0,2.7.7,5.7,2,9,4,9.3,7,19.3,9,30,1.3,2.7,4,4.3,8,5,7,5-13,17,13,20"/>
    <path class="st0" d="M966,895c.7-5.3,3.3-9,8-11,10-4.7,20-9,30-13l21-7,7-1,4,1c4,1,6,6,9,2,6-9,0-20,3-30,3-11,16-16,25-24l4-10c2-2,4.3-2.7,7-2l10,7,5,2,6,2c8,6,16.3,10.7,25,14,4.7,1.3,7.3,4.7,8,10v14l1,6c.7,8,2.3,15.7,5,23,2,6,10,6,15,8"/>
    <path class="st5" d="M957,895c6-12,15.7-20.7,29-26,4.7-3.3,9-7.3,13-12,2.7-2,5.7-3.3,9-4l11,2c6-1,8-8,12-13,1.3-1.3,3.3-2.3,6-3,8-9,11-22,24-25,6-3,5-8,7-12l10-11,2-6c4-5,10-4,16-6h7l5-2,8-1c7.3,0,11.3,2.7,12,8,1,6-8,8-15,7-2,0-3.3,1-4,3-2.7,6-1.7,10.7,3,14,5,8,15,5,23,5,12-1,26,0,34-11"/>
    <path class="st0" d="M1120,514c7.3,1.3,12-1.7,14-9,3.3-8,6.3-15.7,9-23,3.3-10.7,1.3-20.7-6-30l-8-4-5-4c-.7-4,0-8,2-12,0-4-1.3-7.7-4-11-2-1.3-4.7-1.7-8-1h-10l-7,1-10,4c-4,2-6,5.7-6,11-.7,4-2,7.3-4,10l-4,2-16,4c-28,1-11,10-30,16l-9,1c-4-.7-5,.7-3,4l6,2c4,2.7,7.7,4.3,11,5h6l6,2c10.7,0,20-2.3,28-7,4-2,3-8,7-9h6l18,3c2.7.7,4,2,4,4l-5,8c-5.3,4-5,8.3,1,13l8,10c2,4.7,4.7,8,8,10"/>
    <path class="st5" d="M998,591c.7,6.7-1.7,12-7,16-3.3,1.3-7,3-11,5l-3,5c-5.3,8-12,15.3-20,22-3.3,6-2,10.7,4,14,4,1.3,7.3,3,10,5,.7,2.7,0,5-2,7-2,1.3-4.7,1.7-8,1-5.3,2-9.7.7-13-4-4.7-5.3-9.7-9.7-15-13-3.3-1.3-6.7-2.3-10-3l-6-3-7-6-2-1c-2,2-2.3,3.7-1,5,2.7,2,5.3,3.7,8,5l4,4,8,5,4,4,8,4,4,4,4,7c2.7,2,5,4,7,6,2,6.7-.3,10-7,10-3.3.7-6.3,0-9-2l-4-1-5,1c-2,0-3.7,1-5,3l2,7c0,3.3.7,6,2,8l3,5,4,9,6,3c3.3.7,6,2.7,8,6,.7,3.3,2,6.7,4,10,2,2.7,4.7,3.3,8,2l13-2,7-1c2.7.7,4.7,0,6-2l1-3c.7-2.7,1-5,1-7-4-7-4-9,0-16,3-5,6-2,10,1,3.3,1.3,7.3,1.7,12,1,2.7-.7,3.3-2.7,2-6-1.3-2-2-4-2-6,2.7-1.3,5-2.3,7-3,4-2,1-8-2-8-5,0-9,4-13,3l-9-7c-4-2-5-5.3-3-10,2-2.7,3.7-5.7,5-9,0-6-9-6-12-10l-2-4c-1.3-4.7-3.3-9-6-13-4.7-6.7-4-13,2-19s8.7-6,14-6c6-.7,9.7-3.7,11-9-.7-2.7-2-5.3-4-8"/>
    <path class="st0" d="M840,638c-3.3,7.3-8.3,13.7-15,19l-6,6-5,4-1,8c-.7,4-2.7,7.7-6,11l-5,11c-1,7,9,9,13,11,6,4.7,12.7,6.7,20,6l10-5h4c3.3-.7,7-1.7,11-3,4.7-.7,7.3-2.7,8-6,2-3.3,3.3-6.3,4-9v-6c1-9,12-10,17-15,4.7-2.7,6-6.3,4-11-7-12,0-10-1-21-.7-6-3.7-11.3-9-16-3.3-4.7-8-8-14-10-5-2-17-13-21-6l-1,3-4,8c-5,5-3,11-3,17v4ZM1242,568c-3,2-11,5-11,9,1.3,4,2.3,7.3,3,10,0,4-1.3,7.3-4,10-3.3,6.7-3,13.3,1,20l12,17"/>
    <path class="st0" d="M1244,705c-4.7,2-8,.7-10-4l-3-12-2-4,3-4c2-2,2.7-4.7,2-8-.7-4-.3-7.3,1-10,1.3-3.3.7-6-2-8l-23-8c-3-1-9,1-10-3l2-6c4.7-6.7,7.7-13.7,9-21,1.3-4,3.7-7,7-9l2-2c1-6-3-13,1-19l5-8c-.7-2-1.7-3-3-3-4-1.3-6.3-3.7-7-7-1-7,5-17,11-20,7.3-3.3,12.3-1.3,15,6M837,780v-1"/>
    <path class="st1" d="M839,778l6-2,5-4c6-3,10-5,3-10l-8-3-10-5c-2.7-3.3-5.3-4.3-8-3-13,6-28,2-41-1-3.3-1.3-6-4-8-8l-2-5-7-4-5-6-9-11c-1.3-3.3-3.3-6.7-6-10-4-2-8-3.3-12-4l-3-4c-1.3-3.3-3.7-4.7-7-4l-11,2c-2,0-3.7,1-5,3,0,5.3,2.3,9.7,7,13,2.7,1.3,4,3.3,4,6l-1,2-3,5,1,3c8,7,2,14,8,21,1.3,3.3,3.3,6,6,8,3.3,1.3,6.7,2,10,2l5-2c3.3,0,6,.7,8,2,2,.7,4,0,6-2l8-5c5,0,5,7,8,10,4,2.7,4.3,6,1,10-.7,2.7-2.7,5-6,7l-2,4c-.7,1.3-.3,2.7,1,4,1.3,3.3,2.3,6.7,3,10,4,8,20-3,19,9l-1,8c-1,8,6,17,15,17s10.3.7,15,2l7,5,13,1,9,5c6,4,12.3,6.7,19,8,3.3,1.3,6.7,1,10-1,5.3-4.7,7-10.7,5-18-2-6-2.3-12-1-18,2-3.3,4.7-5.3,8-6,3.3-2,5.3-4.3,6-7,.7-3.3-.7-5-4-5-5,0-4,2-5,4-.7,2-2,3-4,3-6,1-7-7-12-9-5.3-2.7-11.3-4-18-4h-9c-2-.7-3.3-1.7-4-3l-6-6"/>
    <path class="st0" d="M837,781v-1M883,811c-2-4-4.3-7.3-7-10-5.3-6-12.3-8.3-21-7l-4,1-5,5c-2.7.7-4.7,0-6-2v-6c0-6-13-11-7-17,2.7-2,5-4.3,7-7,3-5-4-7-7-8-4-1.3-7.7-2-11-2-3.3,2-7,3.3-11,4-2.7,0-4.7-1-6-3-5.3-4.7-11.3-6-18-4-5,2,0,8,0,11s-.7,6.3-2,9l-2,8-3,6c-1.3,2.7-.3,4.7,3,6h6c4-.7,7.7,1,11,5v6l-3,12c1.3,5.3,5,8.3,11,9,4.7,0,10-.3,16-1,5,1,11,3,10-5l1-2h5l7,5,2,2c1,2-3,4-3,7l1,2c4,5.3,9,8.7,15,10l10,4c3.3.7,6,.3,8-1,4-4.7,5.3-10.7,4-18l-4-9,1-5,2-5ZM490,897c0-4,1.7-6.3,5-7,1.3,0,3,.7,5,2,2.7.7,4.3-.3,5-3,1-18,23-21,33-21s-2,1-2,2l-5,4-17,9c-4,4-3.7,8.3,1,13"/>
    <path class="st1" d="M414,892c4.7-6,10.7-8,18-6,5.3.7,9-1.3,11-6,4-6-3-9,0-12,2-3,10,1,14-2,2-1.3,2-3.3,0-6l-7-5c-2-1.3-3-3-3-5l-3-5-4-6v-5c0-3-3-7,1-9,5-3,11-2,16-5,5.3-2,7.7-5.7,7-11-2-2.7-3.7-5-5-7,0-2.7,1.3-4.3,4-5,2,.7,2.7,1.7,2,3-1,8,6,12,10,18,2,4,1.7,7.3-1,10-3.3,1.3-6.7,2-10,2-6,1.3-9.7,4.3-11,9,.7,2,1.7,3.7,3,5l10,4c2.7.7,4.7,1.7,6,3,4,8,5,20-4,23-4.7,0-8.7,1-12,3-9,5-14,15-24,16l-12,1M289,890c-.7-3.3-2.3-6-5-8-9.3-6-19.7-9-31-9l-5-1c-4-4-2-13-8-14h-3c-5.3,1.3-10,4.3-14,9l-4,2c-5,0-8-6-11-10v-3,1h0c0-1.3,1-2,3-2,3.3-.7,6-2.7,8-6l8-11c.7-1.3,1.7-1.7,3-1l2,3c.7,2.7,1.7,5,3,7,6,3,14,5,14,13l1,3c3.3,3.3,7.7,4.3,13,3,4.7-2.7,10-4.7,16-6l5-1,7-4c5.3-.7,10.3-1,15-1,5-2,9-9,15-7l15,4,3,1c3.3,4,7.3,7.3,12,10,6,2.7,10.7,1.7,14-3,3-6,1-14,2-20,.7-2,0-3.7-2-5-4.7-1.3-9-3-13-5-7-7,4-12,4-19-.7-5.3-3.7-9-9-11-4-1.3-8.3-1.7-13-1-3,0-8-2-7-5,2-3,6,1,8,2,7.3,1.3,15,2,23,2,2-1.3,4.7-1.3,8,0,2,2.7,2,6,0,10l-3,8c-4,3.3-4.7,6.7-2,10,3.3,3.3,7.3,4,12,2l5-7c.7-2,2.7-3,6-3l3-1c6,0,12-6,18-7,6,0,8.7,2.3,8,7-1.3,6.7-4,12.7-8,18-7,6-17,4-25,8-3,2,0,3,0,6l-1,5c-1.3,4-2.3,8.3-3,13l-3,4c-3.3,1.3-8,1-14-1h-8l-6-4c-8-4.7-16.7-6.7-26-6-4,0-8,1.3-12,4-8,7,11,21,1,29"/>
    <path class="st0" d="M238,894c.7-2.7.3-5-1-7-2-4-8-5-10-9-1-4,4-6,7-4l24,9c5.3,1.3,8.7,5,10,11M84,881c-.7-3.3-2-6.3-4-9l-17-16c-3-5,8-7,11-9l6-3c5.3-.7,11-1,17-1,2.7-.7,3.7-2.7,3-6l1-5-2-5-8-7h-4c-1.3-.7-1.7-1.7-1-3h2c5,0,14-1,17,2,3,6,2,13,5,19,5,8,17,11,26,9l9-2,5-1c2.7.7,5,1,7,1,5-2,0-13,5-16l4-2c9-2,15,5,21,11l2,5c1,6,6,9,7,14,0,2-.3,4-1,6l2,3,6,3c4,2,2,7,3,11l3,6,4,7M1169,693c0-4.7-2-7.7-6-9-4.7,0-8-1.3-10-4l-1-6c-2.7-4-6.3-7-11-9-3.3-2-5.7-4.7-7-8l-6-4h-7l-5,4-2,8-2,7c.7,4-.3,7.3-3,10l-13,12-3,2-6-2h-9c-3.3,1.3-5.7,3.3-7,6,.7,2,2.3,3.7,5,5,4,1.3,7,4,9,8,1.3,1.3,2.3,3,3,5l1,6,3,6c0,4,1,8.3,3,13,4,5.3,9,6.3,15,3,5-4,15-10,13-18-2-2-2.7-4.3-2-7,1.3-5.3,4.3-9.3,9-12l8-3,9-2,3-2,8-1c5.3,0,9.3-2.7,12-8M1244,721c-12.7-10-19.7-23.3-21-40l3-4c0-4,.7-7.7,2-11,2-3.3,1.7-6-1-8l-6-1-2-2c-6-2.7-12.3-4.3-19-5l-4-2c-5-3-2-11,1-15,4.7-2,8-5.3,10-10-.7-2.7-1-5.7-1-9,.7-2.7,2-4.3,4-5l1-3,5-20,1-6c-.7-2-1.7-3.3-3-4-2-2.7-2.7-5.3-2-8,1-7,9-12,4-18-3.3-.7-6-2.7-8-6l2-2c8-5,25,6,29,0,2-4-2-9-3-14l-1-4c2.7-2,5.3-2,8,0"/>
    <path class="st1" d="M603,891c-.7-3.3-1.7-6-3-8l-3-12c0-4-3-10-1-14,4-2,8,3,12,2,2-2.7,3-5.7,3-9l-1-2c-3.3-.7-6.3-1.7-9-3v-6c2-2,4.3-3.3,7-4,2,2.7,3.3,5.7,4,9,2.7,3.3,6.3,6,11,8l9,9h3c6-3.3,8.7-8.3,8-15-2-7-10-11-7-19,.7-2,2.7-3.7,6-5,9-2,19-6,27,0,.7,2,2,3,4,3,3.3-.7,5.3-2.3,6-5l9-16v-5c1.3-1.3,2.7-1.7,4-1,2,1.3,2.7,3,2,5,1.3,5.3,5,7.3,11,6,5,0,11-4,10-9-1.3-4.7-5-8-11-10-3.3-1.3-4-3.3-2-6,2.7.7,5,0,7-2,.7-1.3,0-2.7-2-4h-8c-2-1.3-3.3-3-4-5l1-5c3.3-2.7,5.7-6,7-10,0-2-.7-3.7-2-5l-2-3-1-4c-1.3-4-3.3-7-6-9l-5-8-1-6c0-2-1-3.3-3-4-2,0-3.7-1-5-3-7-6,3-14,3-21s-6-7-10-6l-10,1-4,3-10,13c-2,5,0,15-4,18-4,.7-7.7,2-11,4-6,2.7-7,6.7-3,12l6,6c1.3,0,2,1,2,3v7c2,10-3,19-7,27-.7,3.3-1.7,6.7-3,10-4.7,8-11.7,14-21,18-1.3.7-3,.3-5-1l-11-2-13-1c-5.3-.7-9.3,1.3-12,6-2,6-2.7,11.7-2,17,2,9,15,12,13,21-3,8-16,4-21,10l-2,6c-2.7,4.7-5.7,8.7-9,12-2.7,3.3-2,6.3,2,9l7,4c5.3,1.3,10,1.3,14,0l4,1"/>
    <path class="st0" d="M776,641l-15,9-8,6-6,1c-4.7,0-8.3,1.7-11,5l-3,3c-1.3,2-3.7,2.7-7,2-2.7.7-4,1.7-4,3,0,2.7,1,5,3,7,3.3,1.3,6.7,2,10,2l12,1c6,1.3,11.3,1,16-1,4-1.3,7.7-2.3,11-3,3.3,0,5.7,1,7,3,2,1.3,2.7,3.3,2,6l-2,6v7l-5,7c0,5,6,7,9,8,2,1,6,2,4,0l-2-6v-8c-1-9-1-11,6-17,4-4,8-9,0-10-4-.7-6.7-3.3-8-8,.7-2.7,0-5-2-7-3.3-1.3-6.7-1-10,1-.7,1.3-1.7,1.7-3,1-3.3-.7-5-2.3-5-5,1-5,7-3,10-6s2.7-4.3,2-7M1249,296l-7-2c-4-3.3-8.3-6.3-13-9-7-3-13,3-18,8-8,6-14.7,13-20,21-3,6,2,14,7,18,8,2.7,15.7,5,23,7,7,3,8,10,11,16,2.7,4.7,4.7,9.7,6,15l1,4c3,5-1,15,9,12M1248,229c-6-4-9-14-18-13-4.7,2-9,2.7-13,2l-8-5-5-8c-6-8-19-7-25,1-1.3,2.7-1.3,5,0,7l10,18c6,3.3,10,8,12,14,.7,2,0,3.3-2,4l-7,9c-5,4,2,7,5,9,16,9,35,1,52,8M1131,682v-1"/>
    <path class="st1" d="M1131,679l1-2,3-5-1-5-1-5c-2.7-5.3-6.7-6-12-2l-2,6c-2,4.7-3,9-3,13l-3,4c-5.3,3.3-9.3,7.3-12,12l-1,6c0,2-1.3,3.7-4,5l-5,4,2,5,5,12c.7,2,.3,3.7-1,5-1.3,5.3.7,9.3,6,12s15-7,17-11c.7-3.3,0-6-2-8l-5-7c-1.3-4,0-6.7,4-8l4-3,12-4,5-1,15-3,7-1c3.3-2,4.3-4.7,3-8-.7-1.3-2.7-2.3-6-3l-5-3-6-2-8,6c-4,0-6.3-1-7-3v-1"/>
    <path class="st0" d="M1130,683v-1M1213-2l1,4c3,3,10,0,13,4v5l-3,4v4c3,8,12,20,3,26-2.7.7-5.7,1-9,1-5.3,0-10,2-14,6l-3,5c-2,5.3-2.3,10.7-1,16,3.3,8,1,14.7-7,20l-5,9c-1.3.7-2,1.7-2,3-3,8,9-1,11-3,5-2,12,0,15-3s1-10,2-14c2-7.3,2.7-14,2-20v-3c.7-2,2-2.7,4-2,8.7-.7,16-4,22-10l3-9M1248,223c-2.7-4-6.7-7-12-9-8-4-17,6-25-3-1.3-2.7-3.3-5.3-6-8-5-5-13-4-20-5l-4-3v-4l2-6c2.7-6.7,2.3-12.7-1-18-6-8-8.3-16.3-7-25v-4l2-2c7-3,14,3,10,10-3.3,6-3.3,11.7,0,17l10,23c2,5.3,5.7,8.3,11,9l10,5c9.3,4.7,19,8,29,10M620,778l-13,10c-4,3.3-8,4.7-12,4l-4,1c-2.7.7-5.3,1-8,1-2.7-1.3-5-2-7-2s-6,3-4,4l7,1,7,4h6c9-1,13-2,20-8,6.7-4.7,9.7-10.7,9-18l1-9c-1.3-4-4.3-6.3-9-7h-6c-4,.7-7.3,1.7-10,3-5,2-9,6-14,3l-4-2c-2.7-1.3-4.7-3.3-6-6,1.3-6.7,4-12.7,8-18l1-1,5-1c4.7,0,7-1.7,7-5,.7-4,.3-8-1-12v-5l3-4c5-6,6-7,14-5,4.7,1.3,8.7,1.3,12,0l4-4,6-5c1.3-3.3,3.7-6,7-8,2-1.3,3-.7,3,2l-2,6-5,6-5,12c-1.3,4-3.7,6.3-7,7l-8,5-5,1c-4,0-6,6-6,10l1,6c-.7,2-2.7,2.3-6,1-4,0-12,1-11,7,2,5,14,1,18,0,4.7-2,9.7-1.3,15,2,3.3,2,5.3,4.7,6,8,2.7,6,1,10.7-5,14M1246,135c-8-6-14-16-25-17-6,0-10.3,2.7-13,8"/>
    <path class="st0" d="M1208,127c2.7,3.3,2.3,7-1,11-3.3,2.7-6,5.7-8,9-2,5.3-3.7,10.3-5,15l1,3,7,12c1.3,3.3,3.3,6.7,6,10,3.3,3.3,7.3,5.3,12,6,9,3,18,9,27,8M1139,472c0-2.7-.3-5.7-1-9-.7-5.3-3.7-9-9-11l-4-2c-4-3.3-5.7-7.7-5-13,1.3-7.3-2-11.3-10-12h-9c-2,2-4.3,2.7-7,2-5.3-.7-8.7,2-10,8-2,4.7-.3,9,5,13l5,5,5,7c3,5,18,4,17,9-.7,4-2.7,7-6,9-15,14-3,13,4,25,1.3,4,4,6.3,8,7,4.7,0,7.7-2.7,9-8l6-16,2-14Z"/>
    <path class="st1" d="M65,878c-6-6-16-4-24-5l-4-2c-2-2-2.3-5.3-1-10,1.3-6-.7-12.3-6-19-4.7-8-12-11.7-22-11-6,1-5,7-6,12l-5,5c-3,3,5,7,7,10l1,3c4,6.7,8.7,12.3,14,17"/>
    <path class="st0" d="M19,879l1,1M896,691c2.7-1.3,5-3.7,7-7l7-7c8-4.7,9.3-10.7,4-18-4-2.7-7.7-5-11-7-1.3-1.3-2.3-3.3-3-6l-1-22c-1-7-9-6-13-9l-2-4c-3.3-4-7.7-6.7-13-8-3.3-1.3-6-3.7-8-7-2.7-2.7-6.7-4.7-12-6-6-1.3-10.7.7-14,6-1.3,4.7-1.7,9-1,13l-2,4c-2,3.3-3,7-3,11s-2.3,10.3-7,15c-.7,2-2.3,3.3-5,4-2,.7-4,.3-6-1l-7-4c-2.7-2.7-6-3.7-10-3-6,0-13,6-11,13l6,6c1.3,2.7,3,5.3,5,8,3,3,9,4,10,9,0,3.3-1,5.7-3,7l-9,11c-2,3.3-2.7,6.3-2,9-.7,6.7,2,11,8,13l19,8c4,.7,7.7,2.7,11,6s4.3,2.7,7,2l19-10c3.3-2.7,7-3.3,11-2l8,1,6-3,5-2,2-4,2-6-1-8-1-2c0-2-4-3-3-5l1-1c2.7,0,4.3,1.3,5,4l5,2Z"/>
    <path class="st1" d="M631,891c0-2.7,1-4.7,3-6,2-.7,4-.3,6,1l7,1c20,1,13-26,28-28,5-1,7,5,7,9,.7,5.3-.3,10.7-3,16-3,6,2,9,6,10"/>
    <path class="st0" d="M1247,391c-6,3.3-11,2-15-4l-1-3c-2-1.3-3.3-2.7-4-4-1-4,3-6,4-10l1-4c1-11-6-24-17-26-7-1-13,4-20,4-6-.7-9.7-3.7-11-9-2-14,2.7-25.3,14-34l17-15,3-2c8-4,17,1,24,6,2,2,4.3,3,7,3M60,880l-24-4-6-1c-3.3-2-4.3-4.7-3-8,2-3,7-6,6-10l-7-14-3-4c-3.3-3.3-7.3-4-12-2-1.3,0-2,1-2,3,0,7-4,17,2,23l2,1c7.3,3.3,12,8.7,14,16"/>
    <path class="st5" d="M1243,520c-5.3-3.3-10-3-14,1l-6,4-2,2,1,5-2,3c-5,3-10-3-15-2-7,3-4,11-7,16-1.3,3.3-.7,6,2,8,3,1,6-3,9-4l2,2c0,2.7-.7,5-2,7l-3,14c-1,4,3,5,4,8v6l-5,5-1,7c-3.3,3.3-5,7-5,11,2,2.7,3.3,5.7,4,9-.7,2-2.3,3.3-5,4l-5,3-2,4-2,8c-.7,5.3,1.3,8.7,6,10,6,.7,11.3,3,16,7l3,4c2.7.7,4.7,2.3,6,5v7c-1.3,2.7-2,6-2,10,1.3,2.7,2.3,5.7,3,9,1,13,11,22,18,32,2.7,3.3,3,6.7,1,10-3.3,1.3-6.3,3.3-9,6-4,4-6,8.3-6,13,2,9,11,8,18,5"/>
    <path class="st0" d="M1043,894c0-6,3-12-2-16l-2-1c-3.3,0-6.3-1.7-9-5l-4-1-24,7-4,2c-5.3,3.3-11.7,5.3-19,6-5.3,1.3-8.7,4.3-10,9M950,575h-8l-10,1c-6.7-1.3-11.3,1-14,7l-6,9-2,4c0,2,.3,3.7,1,5l4,15v15l5,5c10.7,5.3,21,4.7,31-2l7-6,2-3c5.3-3.3,9.3-8,12-14,.7-3.3,3-6,7-8l8-1c5-2,3-10-1-13-5.3-.7-10.3-1-15-1-4-1.3-7.3-3.7-10-7-3.3-4-7-6.3-11-7M1106,831c-3.3-.7-6-2.7-8-6-.7-3.3-1.7-5.7-3-7-6-5-12,0-18,3-10,8-13,3-16,18l-1,7-1,5c-1,10,6,14,13,19,3.3,1.3,6.3,2,9,2l6,3c7.3,4.7,15.3,7.7,24,9,2.7,1.3,5.7,1.7,9,1l7-5c2.7-.7,4.3-1.7,5-3l1-3v-8c-.7-3.3-2-6-4-8l-12-7c-2.7-4-2.3-8,1-12,4-5-3-9-8-9l-4,1ZM1246,140c-4.7-2.7-8.7-6.3-12-11-2.7-3.3-6-5.7-10-7M1223,122c-8,2-6,13-10,18l-3,2c-7.3,4-11.3,9.7-12,17,.7,8.7,4,16.3,10,23l13,10,4,2c7.3,2.7,14.7,4,22,4M1175,885c-2-5.3-5.7-8.7-11-10-4.7-1.3-9-4-13-8l-3,2c-1,7,9,9,15,12l5,4M944,484h2"/>
    <path class="st1" d="M947,484c6-2,11-1.7,15,1,3.3,3.3,7,6.3,11,9l8,7,6,1c4,.7,6.3,2,7,4-.7,3.3,0,6.3,2,9l8,2c1.3,0,2.3,1,3,3-.7,5.3-.7,10.3,0,15,2,4.7,5.7,6.7,11,6l5-3,8-5,4-2,4-1c7.3-2,13.3-5.3,18-10l11-7,4-10c4-4.7,8.7-5.7,14-3,2.7,2.7,5,6,7,10,0,4-.3,7.7-1,11s-1.7,4-3,2l-3-5c-5-8-19-6-21,3-2,5.3-5.7,7.7-11,7-4,.7-7,2-9,4l-7,5c-5,2-10,2-11,9,.7,1.3,0,2.7-2,4-2.7,2.7-6,2.7-10,0-2-2.7-4.3-5.7-7-9l-7-6-4-5c-2-1.3-4.3-2-7-2-3,1-9,2-9-4s.7-5.3,2-8l4-3,1-1c-.7-2.7-2.3-4.3-5-5-8-1-16,2-23-2-5-2-3-4-4-9-1.3-2.7-3.3-3.3-6-2l-6,5c-4-1.3-6.3-4-7-8v-9c-2-2-2-4,0-6l4,2,2,5"/>
    <path class="st0" d="M943,484h1M1246,435c-4.7,0-8,2.3-10,7-4,8-9.7,15-17,21l-3,4c-1.3,2-3.3,3.3-6,4l-1,5c0,5.3,1.7,10.3,5,15l3,6c3.3,5.3,8,6.7,14,4,3.3-3.3,7.7-5,13-5M1248,236l-12-3c-6-1-10,7-16,3-2-2-3.7-4.7-5-8-4-3.3-7-2.3-9,3-2,6,6,9,9,14,2,4-2,6-4,9M1211,254c8,12,24,13,38,13M882,637c.7-4.7-1-8.3-5-11-4.7-4-9.7-6.7-15-8-2.7-.7-4.7.3-6,3l-4,7c-2,9,6,15-3,22-4,3.3-7,7.7-9,13l-7,10c-2,4-10,4-6,10,3.3,3.3,7,4.3,11,3h5l6,2c3.3,2,6,1.7,8-1l-1-2c0-4,1.3-7,4-9,4.7-2,8.7-4.3,12-7,2-2,2.3-4.7,1-8-2-7-4-12,3-17,3.3-2,5.3-4.3,6-7"/>
    <path class="st5" d="M1245,438c-8,2-10,13-15,19-6.7,6-12,12.3-16,19v4l6,15,4,4,3-1c5-3,10-9,17-6"/>
    <path class="st0" d="M1088,820c-4.7,1.3-8.7,4.3-12,9l-4,4-3,6c-2.7,4.7-4.3,10-5,16,2,6,6.7,10.3,14,13,3.3,0,6.3,1.3,9,4,8,6,24,12,34,8,6-3,12-10,8-17-1.3-2.7-4-4.3-8-5l-9-6c-2-3.3-2.3-6.3-1-9v-5l-7-4c-3.3-.7-6.3-2.7-9-6-2-3.3-4.3-5.7-7-7M673,852c-3.3-4-7.3-5.3-12-4l-5,5-8,8-2,7c-2,6-6.7,8.3-14,7-5-1-11-4-15-1-1.3,2-2,4.3-2,7-.7,3.3-.7,6.7,0,10,1.3,2,3.3,3.3,6,4h4c6-1-4-11,3-14,4-2,10,1,15,1,6,2,10.3.3,13-5,2-2.7,3.3-5.3,4-8-2-3.3-2.3-6-1-8,3-5,10-5,14-9"/>
    <path class="st5" d="M983,805l-7-5-5-1c-2-2-3.3-4.3-4-7-5-6-15-6-18,2-2,3.3-2.3,6.7-1,10,4,5,12-1,16-3h3c1.3,1.3,2,3,2,5,1,5,7,4,9,6,3,4-1,9,6,9l19-2h9l9-3,2-3c-1-5-7-6-10-8-1.3-2.7-4-4.7-8-6l-6,2c-4.7,2-10,3.3-16,4"/>
    <path class="st0" d="M1248,233c-6.7-3.3-13-7-19-11h-7c-11,4-14-11-20-16-6-4.7-12-4.7-18,0l-2,4c1.3,10.7,6.3,18,15,22,2,0,3,.7,3,2l7,10c5,6-6,9-9,14M1197,258l2,3h8c12,9,28,7,42,9"/>
    <path class="st5" d="M1180,423l6-1,10-2c4.7-4,5.7-9,3-15-2-3.3-3-6.7-3-10l-2-7-1-2c-2-4-4-7.7-6-11l-9-10c-2-2-9-6-12-4-4,4.7-5.7,9.7-5,15l1,7c2,5,10,6,4,12l-9,12c-2,4-1,12,3,14h6l14,2Z"/>
    <path class="st0" d="M622,827c-1.3-2-3-3-5-3l-3-2c-5.3-2-10.3-4-15-6-2-3.3-5.3-5.3-10-6-6-1.3-11.3-.7-16,2-5,4-9,13-7,18,0,1.3.7,2.3,2,3,3.3,4,7.7,7.3,13,10,5,2,8-3,11-6l8-6,6-1,6,1c2.7,2.7,3.7,5.3,3,8,1.3,4,3.7,6.7,7,8l4,1c1.3-1.3,2.3-3.3,3-6,.7-2,1.7-3.7,3-5,.7-3.3-.3-6.7-3-10h-7ZM132,885l-10-5c-3.3-1.3-6.3-3-9-5-2-2.7-3.7-5.7-5-9-1.3-2.7-3-4.7-5-6-5-3-11-9-17-8-5,0-13,4-7,10l14,20M530,823l-2-9-1-3c-.7-8-4.7-12.7-12-14l-11-3c-5.3-2-10-1.7-14,1-7,9-2,22,5,29l2,3c1.3,4,1.7,8,1,12,1,5,4,12,10,13,12,1,22,0,20-15-2-8-2-7,2-14"/>
    <path class="st5" d="M202,892l-8-11-12-10c-2.7-2.7-3.7-6-3-10,0-2-1-3.7-3-5l-5-1c-10-4.7-19.7-3.7-29,3h-4c-8-2-16-5.3-24-10-4-2-9,0-6,5,2,6,5,11.7,9,17,6,2.7,11.7,5,17,7,6,2,10,10,18,10"/>
    <path class="st0" d="M72,881c-4.7-6-10-10-16-12-4,1.3-7.7,1.3-11,0-2.7-1.3-4-3.7-4-7,.7-8.7-2.3-16.3-9-23-2-2.7-4.7-4.7-8-6-2.7-2.7-6-4.7-10-6-8-2.7-13.7,0-17,8l75,46Z"/>
    <path class="st1" d="M489,845c-.7-12-4-23.3-10-34l-6-8c-1-6,7-13,11-16,2-2,4.3-3,7-3h19c2-2,3.7-3.3,5-4l5-1,6-2c2.7.7,5,3,7,7,3.3,2.7,7.7,3.3,13,2,5,0,2,4,2,7v7c-3.3,3.3-6,6.7-8,10-3,5,0,11,0,17v6c0,4,.7,7.7,2,11,0,4-1.3,7.7-4,11-2,4-5.7,6.3-11,7-5.3,3.3-11.3,4.7-18,4-2.7,0-5.3-1.3-8-4-3.3-1.3-7.3-2-12-2-5-2-2-6-1-10"/>
    <path class="st0" d="M1180,885c-.7-6-3-11-7-15l-1-2h0v1-1c3.3-2,6.7-2,10,0,3,2,1,7,4,9,3.3,3.3,7.3,4.3,12,3,4.7,0,8.7,1.3,12,4M1038,616c2.7,3.3,6,5,10,5,2,2.7,4.3,4,7,4,4-.7,7.7-2,11-4,4.7,0,8-1.7,10-5,7-10,0-20-7-28-2-3.3-4.7-5.7-8-7-4.7-2-9-1.7-13,1l-2,4c-.7,6-1.7,11.7-3,17l-1,4-1,5-3,4ZM1036,666c2.7,5.3,6,9.3,10,12l10,8,4,2c8,0,12-10,16-17,1.3-4,1.3-8.7,0-14l2-6c1.3-4,1.3-8,0-12-.7-2.7-2-5.3-4-8-3-1-10,4-12,7l-2,3-6,6-3,3-1,7c-1.3,2.7-3,4-5,4-3,2-7,1-9,5M1023,431v1"/>
    <path class="st1" d="M1024,434l4,5,2,6c2.7,2,5,2.7,7,2h12c9-1,25-4,24-16l-1-8-4-5-9-5c-2-2-4.3-2.7-7-2-6.7,0-12,2.7-16,8-4.7,2.7-8.7,6-12,10"/>
    <path class="st0" d="M991,545v-1"/>
    <path class="st1" d="M990,542c-2.7-2-5.7-2.3-9-1-6,2.7-9.3,1-10-5-2-8-7.3-11.3-16-10-3.3,0-5,2-5,6,0,6-5,9-7,15,0,4,2,6.7,6,8l15,1c3,2,5,5,9,1l14-9,3-2"/>
    <path class="st5" d="M966,517c-.7-2-2.7-3-6-3l-6,1c-1.3,1.3-2.3,3.3-3,6-3.3,2.7-5.3,5.7-6,9l-1,6-3,7c-2.7,4.7-2.7,9,0,13,3.3,2,6.7,2.7,10,2,4,.7,7.3,1.7,10,3,2.7,4,6.7,5.7,12,5l6-4,5-2,6-6c4-2,10,3,14,1,3-2,1-8-1-10l-7-4c-2-2-4-3.3-6-4h-14c-2-1.3-3.3-3.3-4-6l-6-7c-2.7-2-2.7-4.3,0-7"/>
    <path class="st0" d="M1049,380c-7.3,2-14,3.3-20,4-10,2-12-13-19-4-2.7,3.3-4.3,6.7-5,10l-2,6c-1,4,5,9,9,11l5-2c6.7-2.7,13.7-4.7,21-6,9-2,24-10,11-19M1145,407c4.7-3.3,6-7.3,4-12,1.3-4,2.3-7.3,3-10l-1-6c-.7-2.7-2-4.7-4-6-3.3-2.7-7-3.3-11-2-6,1.3-11.7,3.3-17,6l-11,1-7-1-4-4-4-6,1-10c0-8-9-7-15-8-4-.7-8-2-12-4-1-1-5-1-4,2l12,8,8,4c4.7,3.3,6.7,8.3,6,15l1,4,6,6c6.7,3.3,13,3.3,19,0,4-3,12-4,16-2,2.7,1.3,4.7,3,6,5,2.7.7,4.7,2,6,4,0,1.3-.7,3.3-2,6,0,3.3,1.3,6.7,4,10"/>
    <path class="st5" d="M1216,884c-4.7-4.7-10.7-7.7-18-9l-3-2c-4-3-2-9-7-11-2-2-4.7-2.7-8-2-4.7.7-8-.7-10-4-2-4-1-10-7-8l-17,7c-.7.7-1.3.3-2-1l-2-8c0-3.3,1.7-5,5-5l8,1c8-.7,16-2.3,24-5l3-3c8-8.7,17.7-14.7,29-18,2.7-1.3,5.3-3,8-5l8-1c4-2,6-7,10-6h0q-.7-.7,0,0c3,2-10,9-12,11l-1,5-1,6c-2,5.3-2.3,10.3-1,15,2.7,4,6.7,5.7,12,5"/>
    <path class="st0" d="M1221,615c-9,2-6,11-8,18-1,3-5,5-3,8,2,2.7,4.3,4,7,4l18,5c2.7,1.3,5,1.3,7,0,3.3-4,3.3-8.3,0-13-3.3-2-5.7-5-7-9-2-3.3-5-7-9-11l-5-2ZM1049,465l4-1c3.3,0,6.3-.7,9-2l4-2,7-1c2-.7,2.7-2.3,2-5-2-1.3-4.3-1.3-7,0l-5,2c-5,1-14-3-17,3,0,2.7-1,4.7-3,6-2.7.7-5,2.7-7,6-1.3,2-1,3.7,1,5,4,2.7,8.3,3,13,1,1.3-.7,2.3-2,3-4l-4-8ZM1244,459c-7-1-17,4-19,13l-2,4M1223,476c1,8,15,7,21,9M728,596c1,6,10,10,16,10,4-2,7.3-4.7,10-8,4-1.3,7.7-1.7,11-1,4-.7,7-2.7,9-6,.7-2,.3-4-1-6-1.3-5.3-4.3-8-9-8-5.3,1.3-10.3,4-15,8l-12,4c-4.7,1.3-7.7,3.7-9,7Z"/>
    <path class="st1" d="M307,797l-4-3c-.7-2-1.7-4.3-3-7-4-2.7-8-3-12-1-1.3,1.3-2.3,3.7-3,7l-1,11,1,3c-.7,6,1.3,10.7,6,14,2.7,3.3,5.3,4,8,2,1.3-1.3,2.3-3.3,3-6l5-14"/>
    <path class="st0" d="M307,802l1-1M824,618c2-.7,2.7-2,2-4v-8c1.3-2.7,2.3-5.3,3-8v-4c.7-2.7,0-4.7-2-6l-4-6-5-5c-4-5-8,0-7,4-.7,5.3,1,10,5,14l1,2v5c-1,6,2,7,5,11l2,5Z"/>
    <path class="st5" d="M960,571c-2.7-4-6.3-6.3-11-7h-8c-4.7-2-7.7-5.3-9-10v-14c.7-3.3,2.3-7,5-11l2-6c1.3-6-1-9.3-7-10l-6-7-7-7c-2.7-2.7-4.7-2.3-6,1l1,4c.7,3.3,0,6.3-2,9l-1,5c-2,9-5,4-11,3-1,0-5,1-3,3,8,4,7,6,7,14,1,6-6,8-11,10-2,0-6,3-4,6,1.3,1.3,3.3,2.7,6,4l1,9c1.3,4.7.3,8-3,10-2,1.3-4.7,1.7-8,1-2-.7-3.7-1.7-5-3-5.3-1.3-6.3-4.7-3-10,1.3-4,.3-7.7-3-11-2.7-4-4-8.3-4-13s-1.3-3-4-1v5c-1.3,3.3-4,5.7-8,7h-6c-3.3,0-6,.7-8,2l-3,3,4,7,5,8c1.3,2,3,3.3,5,4,4,0,7.7.7,11,2l2,5,3,5c4,5,7-2,10-4,3.3-.7,6.3.3,9,3,7,7,3,18,12,24,4,3,4-1,3-4l-4-9c-3.3-3.3-3.3-6.3,0-9,4-1.3,7-3.7,9-7,1-6-6-12,2-16,2-.7,4.7-.3,8,1,6.7,3.3,13.7,4,21,2l9-1,7,1"/>
    <path class="st1" d="M1242,331v-6c-2-7.3-5.3-14-10-20-2-4-4.7-5.3-8-4-6,2-15,5-16,13-1.3,2.7-1.3,5,0,7,4,2,8.3,2.7,13,2,5.3,2,10.7,5,16,9"/>
    <path class="st0" d="M715,854c0,8,3.3,13.3,10,16l6,6c6.7,1.3,11.7-1,15-7,2-5.3,1.7-11.3-1-18,0-2.7-1-4.7-3-6-8-6-24,0-27,9M1053,419c-2-2-4.3-2.3-7-1-1.3,2-2.3,3.7-3,5-.7,2.7-2.3,5-5,7-1.3.7-2.3,1.7-3,3,0,4,1.7,6.7,5,8l8-2,8,1c4-.7,7-3,9-7v-6c-2-2.7-3.3-2.7-4,0-.7,3.3-2.7,5-6,5-3.3-.7-5.7-2.7-7-6-2-4,2-5,4-7M1107,430h-2"/>
    <path class="st1" d="M1103,431l-4,1-5-1c-12,1-7,13-1,17l11,8c3.3.7,6.3.3,9-1,4-1,5-8,1-9h-3c-2.7,0-4.3-1.7-5-5l2-5,3-3-2-2"/>
    <path class="st0" d="M1108,431h-1M1084,311c.7-1.3,2-2.7,4-4v-3c-2-6-1.3-11.7,2-17,5-4,11,0,15,3l6,4c3.3,2.7,4.7,6,4,10-1,7-9,11-16,7l-6-2-3,1-2,3c-2,1.3-3.7,1-5-1M1123,506c6,0,5-8,7-12,2-6,5-12,1-18-1.3-2.7-3-4-5-4-4,0-7,2-9,6l-7,5c-3.3,2.7-3.7,6-1,10l14,13ZM1113,869h1"/>
    <path class="st1" d="M1115,867l-2-2-6-7c-4-4-7.3-8.3-10-13-2-8-11-8-13-1-2,6,5,12,9,15,3.3,2,6.7,4.3,10,7l8,2"/>
    <path class="st0" d="M870,664l-2-5-5-6c-3.3-2.7-7.3-2.7-12,0-2,2.7-3.3,5.7-4,9l-6,6c-3,6,3,12,10,10,3.3-2,6.3-4.3,9-7l4-1c3.3-1.3,5.3-3,6-5M1025,502c-4-7.3-10-12.3-18-15-3.3-.7-5.3,0-6,2-3.3,4-5,7.7-5,11s.7,2.3,2,3l6,1c4,.7,7.3,2.3,10,5,5,3,9-3,11-7M15,880c-2-6-9-6-14-9-4-2,1-9-3-11l-4-4M735,873c4,0,6.3-2,7-6v-7l-1-9c-2.7-3.3-6.3-4.7-11-4-3.3.7-6.3,2-9,4-2.7,4.7-2,9,2,13l6,4c1.3,2.7,3,4.3,5,5"/>
    <path class="st4" d="M1230,855l-14-1h-8l-4,4c-2,6-1.3,10.7,2,14l16,11"/>
    <path class="st0" d="M1239,158l-9,3-7,4-2,1c-2,3,2,10,6,11,6.7,1.3,12.7-.3,18-5l2-3c-.7-4.7-3.3-8.3-8-11M977,712l-16,7c-1.3,2.7-1.3,5.7,0,9,3.3,4.7,8,5.7,14,3,3.3-2,5.3-5.3,6-10,2-4,.7-7-4-9M1098,582c-1.3-2-1.7-4.7-1-8v-14c3-10,9-11,5-23-1.3-4.7-4.3-8-9-10l-1,1c-.7,4.7.3,9.3,3,14,1.3.7,2.3,2,3,4,2,5-4,9-6,13-3,5,1,11,4,15M1188,817c-.7-3.3-3-5-7-5-3.3-.7-6-.3-8,1-4.7,4.7-6.7,10-6,16,1.3,2,3.7,3,7,3l10-7,4-8ZM1105,740c5.3-1.3,9-3.7,11-7l1-4c-2-4-8-5-10-8-.7-2.7-2.7-4-6-4l-1,2,3,6c3,6-7,11,2,15M999,740c0,2.7,1,4.7,3,6,5.3,2,10,1,14-3l1-4-2-10c-2.7-4.7-6-4.7-10,0-2.7,2.7-4.7,6-6,10M10,880c-2.7-2-5.7-2.7-9-2l-9-6,18,8Z"/>
    <path class="st1" d="M738,817l-5,2c-4,2-5.7,5-5,9l4,4c2.7,2,6,3,10,3,3.3-2,5.7-5,7-9,2-4.7.3-7.7-5-9"/>
    <path class="st0" d="M743,816h-1M1044,671c1.3,3.3,3.7,5.3,7,6,6,2.7,11.7,2.3,17-1l4-6,1-5c0-3-4-6-3-9,.7-2.7,2-5,4-7,2-5.3.7-9-4-11-3,0-5,5-6,7l-6,6-5,8c-2,4-5,7.7-9,11M1231,873l-4-8-1-2c-3-4-16-7-18-1-1.3,2-1,4,1,6,2.7,2.7,5.7,4.7,9,6,3,2,7,6,12,4M671,672c8,4,9,1,12-5,3.3-3.3,5-7,5-11-1.3-2.7-3-3.3-5-2-2.7,3.3-3.7,6.3-3,9,1,5-6,5-8,8M646,787c0,2.7.7,5,2,7,4,5.3,8.7,7.3,14,6,3.3-2,4.3-4.7,3-8-2-4-5-7.3-9-10-4.7-2.7-8-1-10,5M877,541l2,2,14,1c11,0,8-18-2-12-6,1.3-10.7,4-14,8M780,637l6-4c3.3-2,7.3-3.3,12-4,3-2-6-8-9-9-4-1.3-6.7,0-8,4l-1,10v3ZM696,893l-1-3c-2-2-2.7-4.3-2-7v-4l2-8c2.7-3.3,2-6.3-2-9l-12-9h-4l1,1,4,4c1.3,2.7,2.3,6,3,10l1,9-2,6c-1,6,6,9,11,10M715,612c-1.3,1.3-2,3-2,5,2.7,9.3,9,15.7,19,19,6,2,15-1,17-7,0-2.7-1.3-4.3-4-5-2.7-2.7-6-4.3-10-5-4.7,0-8.7-1-12-3l-8-4ZM1223,569l13-5,3-2v-4c0-4-5-9-9-5-4,3.3-7,7-9,11-.7,2,0,3.7,2,5M737,773c-1.3-2.7-3.7-4.3-7-5l-9-3c-2.7-.7-5-.3-7,1-1.3,2.7-.7,4.7,2,6,4,3,9,0,13,0s5,3,8,1M1031,392c-3.3-2-7.3-3.3-12-4-2-1.3-4-1.7-6-1-2,1.3-2.7,3-2,5,0,2,1.3,3.3,4,4,7.3,2.7,13.3,1.3,18-4,2.7-4,6.3-5.7,11-5l4,1c.7,1.3.3,2.3-1,3-4.7,4-9.3,4.7-14,2"/>
    <path class="st5" d="M818,801c4-.7,7.7-2,11-4,3.3-3.3,2.7-6-2-8-5-3-13,0-14,4,0,4,1.7,6.3,5,7"/>
    <path class="st0" d="M675,756c.7-2,0-4.3-2-7-.7-2.7-2.7-4.3-6-5-4-.7-6.3,1.3-7,6l5,7,2,2c4,2,6.7,1,8-3M1107,705c-1.3-.7-2.3-2.3-3-5,0-6.7,3.7-11,11-13,4.7,0,8.7,1,12,3,6,2.7,6.7,6,2,10l-12,4c-2.7,1.3-6,1.7-10,1M743,744h1"/>
    <path class="st4" d="M746,743l6-3,1-1,1-4c.7-2,0-3.3-2-4h-9c-2.7.7-4,2.7-4,6l2,6"/>
    <path class="st0" d="M1152,858l2,5c4,3.3,7.7,4,11,2,1-2,1-9-2-11-4.7-1.3-8.3,0-11,4M1238,812l-3,4c-1.3,1.3-3.3,2.7-6,4l-2,7-1,4c-1.3,4,0,6.7,4,8l5,1M581,833l4-2c3.3-2.7,4-5.7,2-9-2.7-3.3-5.7-4.3-9-3-4,2.7-4.7,6-2,10l5,4ZM1124,697c-2-5-9-8-13-4-2.7,3.3-2.3,6,1,8,5.3.7,9.3-.7,12-4M872,828c-1.3,0-2.3.7-3,2l-1,7,3,2,4,1,2-2c2-5.3.7-8.7-4-10M1123,783c-2-2.7-5-4-9-4-2.7.7-4.3,2.3-5,5,.7,2,1.7,2.7,3,2,4.7,1.3,8.3.7,11-2M654,681c5,3,13,1,14-4,.7-2,0-3-2-3-4.7.7-8.7,3-12,7M509,823c1.3-1.3,1.7-3,1-5,1-4,6-11-1-12-2.7-.7-5.7,0-9,2-4,4,5,12,9,15M564,866c-4.7,4-5,7.7-1,11,2.7,1.3,5,.7,7-2l-1-3c-.7-2-2.3-4-5-6M965,748c3.3,4,7.3,4.7,12,2,1.3-.7,2-1.7,2-3l-2-2c-4.7-.7-8.7.3-12,3M1204,197c11,10,7,19,25,13,.7-1.3.3-2-1-2l-9-3c-5.3-3.3-11-6.3-17-9M295,817l2-2c2-4,2.7-8,2-12-1.3-.7-2.3-2-3-4l-2-5c-2-1.3-3.7-.7-5,2-.7,2-.3,4.7,1,8l1,5c.7,3.3,2,6,4,8M804,721l9,9c.7,2.7,2.7,4.7,6,6,2.7,1.3,5.7,1,9-1l1-1-1-1-20-12h-4ZM1178,817c-4-1-7,5-4,8,3,2,7-2,8-4,.7-2-.3-3.3-3-4M1201,195l-7-6-4-6c-2-2-3,3-4,5-3,8,9,8,14,8l1-1ZM551,852c5-2,13-6,8-12l-7-8h-2l-1,4,2,10v6ZM757,587c4,2.7,7.3,2.3,10-1,.7-1.3,0-2.7-2-4-2-2-7,2-8,4M439,796c2.7-1.3,4-3,4-5,1.3-2.7.3-4-3-4l-5,4c-.7,2,.3,3.7,3,5M229,828c2.7-1.3,4.3-3.3,5-6,1-3,4-12,1-14l-1,1-4,7c-1.3,4-1.7,8-1,12M549,828c-2.7-3.3-4-6.7-4-10l1-3,7-6h1l1,1-2,4c-2,3.3-3,7-3,11l-1,3ZM700,882l1,2c2.7,1.3,4.7,1.3,6,0s.7-3-2-5c-2-.7-3.7.3-5,3M1016,522c-4,0-4,6,0,7,1.3.7,2.3,0,3-2s-.3-3.7-3-5M934,503c1-3-4-8-6-4-1,3,5,8,6,4M1227,169c.7,2,2,3,4,3l4-1-2-4c-2-.7-4,0-6,2M1159,608c-4.7-2.7-7.3-2-8,2,.7,2,1.7,2.7,3,2l5-4ZM719,665c-1.3-2-3.7-3-7-3l-1,1c0,3,7,3,8,2M1055,604c1.3,3.3,3.3,3.7,6,1,2-1,6-5,3-7-4-3-7,3-9,6M1234,538l-2-4c-2-1.3-3.3-1-4,1l1,3c2,2,3.7,2,5,0M1204,458c-2-1-8-1-7,2l1,1c2.7.7,4.7,0,6-2M579,863v-6l-2-1c-1.3.7-1.7,1.7-1,3l3,4ZM996,586c-3.3-6-8.3-8.3-15-7l-1,1h1l4,2,11,4ZM1125,610c2.7-.7,3.3-2,2-4l-3-2-2,3c.7,1.3,1.7,2.3,3,3M852,668l-4,1c-1.3,1.3-1,2.7,1,4l3-2v-3ZM969,830c-1.3-2-3-2.3-5-1l-1,1,2,2c2,0,3-.7,3-2M1140,754l-2-1c-1.3-1.3-1-3,1-5,2.7.7,4,2.3,4,5l-3,1ZM1080,628c4,0,4-4,0-4l-1,1c-1.3.7-1,1.7,1,3M731,627c2,3.3,4.7,3.7,8,1l-1-1-1-2c-2.7-1.3-4.7-1-6,1M985,487c.7,1.3,1.7,2,3,2l3-3c-1.3-1.3-3.3-1-6,1M247,833l1-4M723,820l4-3-1-1-1-1-3,2,1,3ZM1011,591l2-6M1193,658h5-5Z"/>
    <path class="st3" d="M435,816c2.7.7,4.7.3,6-1,2-3-4-5-6-6h-3c-3.3.7-5,2.7-5,6l3,1"/>
    <path class="st0" d="M885,799c2.7-2.7,2.7-5.7,0-9-.7-3.3-1.7-6-3-8-2-1.3-4.7-2-8-2l-10-4h-2c-4.7.7-8.3,2-11,4l-2,4c2,2.7,4.3,3.7,7,3,4-.7,8-.3,12,1h7c5,1,4,9,9,11M128,871l4-1c3.3-1.3,4.3-3.7,3-7-2-5-12-8-17-5-1.3,2.7-1.3,5,0,7,1.3,2.7,3.3,4.3,6,5l4,1ZM162,876c5-1,5-10,2-13-5-6-13,3-12,8,2,3.3,5.3,5,10,5M937,886l9-2c4.7-2,6.3-5.3,5-10-2-2-3-4.3-3-7-1.3-6.7,1-9.7,7-9,2-.7,3.7,0,5,2l3,6,4,3c5.3.7,8-1.7,8-7l-5-5v-6l1-6,5-4c1.3-1.3,2.3-3.3,3-6,2.7-2,6-3.3,10-4,3.3-2,6.3-2.7,9-2h11l9,1,6,2c4.7,1.3,8,.3,10-3,2.7-6,2.7-11.7,0-17v-4l2-3,8-3c2.7-2,5.3-2.7,8-2,4,1.3,5.3.7,4-2l-1-12c1.3-3.3,0-5-4-5-6-.7-11.3-2.3-16-5l-4-1c-2-.7-4.7-.3-8,1l-6,1v8c0,4-6,6-9,7-4.7,2-8.7,1.7-12-1-2.7-1.3-3.7-3.3-3-6l3-6c2-4,6-6.3,12-7l4-1,5-5c7.3-2.7,11.3-7.3,12-14-.7-5.3-1.7-10.3-3-15,0-4,6-8,2-11l-3-2-13-7-3-1-10-2c-2.7-1.3-5.3-1-8,1-.7,3.3.3,6.3,3,9,3,4-1,8-1,12-.7,4-2.7,7-6,9-2.7,2.7-3.3,5.7-2,9l5,17c.7,6-1.3,8-6,6-6-4-11.7-4-17,0-2,2.7-4.7,4-8,4s-6.3.7-9,2c-9.3,6.7-13,15.7-11,27-.7,2.7-2.3,4-5,4-3,5-2,13-7,15l-10,1c-2,.7-3.3,2.3-4,5-.7,4,0,8.3,2,13,2.7,2.7,5.7,5,9,7,2,2.7,3.7,5.7,5,9,2,2.7,4.7,4.7,8,6,4,2,0,4-1,6-2,2-3,3.7-3,5-.7,3.3.7,5,4,5M25,861h0"/>
    <path class="st4" d="M27,860c2-3-4-7-8-8-2.7,0-4.3,1.3-5,4,2,2.7,4.7,4.3,8,5"/>
    <path class="st0" d="M23,861h1"/>
    <path class="st5" d="M583,837l8-6c2.7-2.7,2.7-6,0-10l-3-5c-4-2.7-8-2.7-12,0-5,3-9,11-4,16s7,5,11,5"/>
    <path class="st0" d="M1208,449l5-5,8-3c3.3,0,5.7-1.7,7-5,2-6-.3-8.7-7-8-4,0-8.3.7-13,2l-6,4c-2,0-3,1-3,3,1,4,4,11,8,12M1099,446l2-3-2-5-3-1-3-1-2,4c1.3,4,4,6,8,6M1179,420c5.3,0,10-.7,14-2,4.7-2,5.7-5.3,3-10l-4-9c-2-4-6-3-10-5-4-2.7-7.7-2-11,2-4,5-15,14-8,20,2.7,2,5.3,2.7,8,2,3.3,0,6,.3,8,1"/>
    <path class="st0" d="M1173,417l6-1h5l7,1c4-2.7,4.3-5.7,1-9l-5-6-8-4-4,1c-3.3,2.7-6.3,5.7-9,9-1.3,5.3,1,8.3,7,9M283,893c0-7-8-9-13-13-2.7-2-4.3-1.7-5,1,.7,2,2,3.3,4,4l4,8"/>
    <path class="st0" d="M1176,413c5.3-.7,6.3-2.7,3-6l-3-2c-2,1-7,3-5,7l5,1ZM224,892c2-1,8,0,6-4-.7-2.7-2.7-4.3-6-5l-4-5-4-2c-1.3.7-1.7,1.7-1,3l2,4,2,6c.7,2,2.3,3,5,3M1042,444c8-2,21,1,26-7,3-4,2-12-3-15-4.7-5.3-10.3-8-17-8-7,1-7,5-11,10l-7,4c-.7,3.3,0,6.7,2,10,1.3,4.7,4.3,6.7,9,6M1147,697c4,0,7-1.3,9-4-.7-2.7-3-4.3-7-5-4-3-8,3-8,7,1.3,1.3,3.3,2,6,2M127,866l2-1-2-4c-4-.7-5.3.7-4,4l4,1ZM861,666l2-1c1.3-1.3,1.3-2.7,0-4h-3c-3,0-3,5,0,5M976,440c2.7-2,3-4.3,1-7l-3-6c-1.3-2.7-3-4-5-4-5,3-1,9,1,12,.7,3.3,2.7,5,6,5M825,574c2-.7,3-2,3-4l-4-2c-1.3,1.3-2,2.3-2,3l3,3ZM514,864c6-1.3,11.7-4,17-8,3.3-1.3,5.3-3.7,6-7,1.3-2.7,1.3-5,0-7v-11c1.3-2.7,1.7-5,1-7-7-17,3-19-1-27-3.3-7.3-9-11-17-11-4,2-7.7,2.7-11,2l-4-1h-13c-4.7.7-8.7,3.3-12,8-2,3.3-2.7,6.3-2,9l10,21,5,18,1,8,2,4,7,4,6,4,5,1ZM668,881c7.3-2,10.7-5.7,10-11,.7-1.3,0-2.7-2-4-3.3-.7-5.3,1-6,5l-3,5c-2,2-1.7,3.7,1,5M1086,457c9-1,3-7-3-7l-1,2c-.7,2.7.7,4.3,4,5M404,894c4.7-5.3,9.7-10,15-14,5-3,9-2,10-9,0-8,4-8,9-12,1.3-1.3,1.7-3,1-5-2-10-14-18-24-16-5,0-2,5-4,8-1.3,1.3-3.3,2.3-6,3-5.3.7-10,3-14,7-4,6-7,12.3-9,19l-4,12v3c1.3,2,3.3,3.3,6,4M1057,673c4-.7,7.3-2.3,10-5v-5c-1.3-2.7-3-4.3-5-5-3.3,0-5,1.7-5,5l-3,6c-.7,2.7.3,4,3,4M1245,441c-2,.7-3.3,2-4,4-2,4.7-4,8.7-6,12-6,6-13,9-15,17-2.7,6.7-.3,10.3,7,11l17,4M328,886c4-2,2-5,2-8l-1-2c-4-2.7-7-1.7-9,3l1,3c1.3,2.7,3.7,4,7,4"/>
    <path class="st0" d="M398,893c3.3,0,6-1.7,8-5l6-7,3-4c4-2,7-4,9-6,1.3-4,3.3-7.7,6-11,2-2,3.3-4,4-6-.7-4-3-6.3-7-7-2.7-.7-5,0-7,2l-3,1-13,3c-2,.7-4,2-6,4l-7,9-5,11c-.7,6,1,10.7,5,14,2,2,4.3,2.7,7,2M699,848l9-6c2-1.3,2.7-3,2-5,0-2.7-1.3-5.7-4-9l-6-1-9,7c-2,.7-3.3,2-4,4-1,6,6,9,11,9M1181,386l3-2c2-2.7,2-5,0-7-2-3.3-5.3-5.3-10-6-1.3-.7-2.3-.3-3,1-.7,3.3-1,6.7-1,10,2.7,2.7,6,4,10,4h1Z"/>
    <path class="st1" d="M737,860c2-4,1.3-7-2-9-4-.7-7,.7-9,4,0,3.3,2,5.3,6,6"/>
    <path class="st0" d="M733,862h1M865,645c5-2,13-4,15-9l-1-5c-2.7-4.7-7-7.7-13-9-4.7-.7-7.3,1.7-8,7-1,6,0,15,7,16"/>
    <path class="st5" d="M400,889l5-4,4-5,3-5c1.3-2,4-3.7,8-5,3-2,5-10,2-12l-8-1c-2,.7-3.3,2-4,4l-2,4-7,4-3,4-4,3c-6,6-1,11,5,13"/>
    <path class="st0" d="M868,639c21-3-4-23-5-7l1,5c.7,2,2,2.7,4,2M1122,499c2.7-2,4-4.3,4-7v-4c-2-3-9-4-13-3-2,1.3-2.3,3.3-1,6,1.3,4.7,4.3,7,9,7"/>
    <path class="st5" d="M1209,735c2.7-.7,4.7-1.7,6-3,.7-1.3.3-3-1-5-1.3-3.3-3.3-6-6-8-4-2-7.3-1.3-10,2-1.3,1.3-2,3-2,5,3.3,4.7,7.7,7.7,13,9"/>
    <path class="st0" d="M1249,306c-6-6.7-13-12.3-21-17l-3-1c-4.7,2.7-8.3,6-11,10-7,6-21,10-18,20,2.7,6.7,7.3,10.7,14,12l15,3c5.3,4.7,9,11,11,19l7,10,6,5"/>
    <path class="st1" d="M1250,329c-2-8-4.7-15.7-8-23-4-6-11-18-20-13l-6,7c-5.3,2.7-10,5.7-14,9-2,1.3-3,3-3,5-1.3,4-.3,7.7,3,11,5.3,2.7,10.3,4,15,4h7c3.3,2,5.7,4.3,7,7,5.3,10,11,18.7,17,26"/>
    <path class="st0" d="M983,481h1"/>
    <path class="st1" d="M986,481c4-2,9-5,4-9-4-3.3-8.3-4-13-2-4,3,0,8,4,11"/>
    <path class="st0" d="M832,693c8-3,23,4,29-3,2-3,0-8,3-12l11-8,3-6c-1-7-6-12,0-18,2-3,7-4,7-8,.7-2.7.3-5-1-7-3.3-6-8.3-10.3-15-13l-3-1c-2.7-1.3-5.3-2.3-8-3-2.7,1.3-4.3,3-5,5l-4,5c-1.3,2-1.7,4.7-1,8l1,10c0,6-7,9-10,12l-2,4-5,10c-4,2.7-7.3,5.7-10,9-1,6,4,14,10,16M817,632c2.7-1.3,3.7-3.7,3-7l-1-2c-4,.7-7.3,2.3-10,5-.7,1.3,0,2,2,2l6,2ZM1250,345c-2.7-2.7-4-6.7-4-12v-5c-2-8.7-4.7-16-8-22l-3-3c-3-4-6-9-10-7l-3,1c-6,6-15,8-19,16-4,11,4,14,14,12l6,1,12,8c5,5,3,13,7,18l7,3M112,883c-4-2-11-4-10-11,.7-6-1.7-9.7-7-11-4.7-.7-6.7,1-6,5,2,6,9,10,11,17"/>
    <path class="st1" d="M187,888l-3-3-2-4c-4-2-10-2-11-8-1-8-2-17-12-15-8,0-14,10-9,18,3,3,10,3,13,6l2,4"/>
    <path class="st0" d="M1126,335c3.3,0,5-1.7,5-5s-6-7-10-6c-2.7,2-3.7,4.3-3,7l3,2,5,2Z"/>
    <path class="st5" d="M1125,889l12-4c1.3-1.3,2-3,2-5l-4-20c-3-5-9-10-8-16-.7-9.3-5.3-15.7-14-19l-8-1-2-3c-3.3-5.3-8-8.7-14-10-3.3,0-6,1-8,3l-5,5-9,3c-13,7-15,23-11,36,2,4.7,5,8.7,9,12l1,7c1.3,3.3,3,4.3,5,3,9-6,13-4,22,0,6.7,4.7,13.7,8,21,10"/>
    <path class="st0" d="M936,644l9-1c5.3-3.3,10.3-7,15-11,5.3-6,10.3-12.3,15-19,1.3-3.3,3.3-5.3,6-6,4.7-.7,8.7-3,12-7,3-9-5-16-14-15h-5c-4,0-7.3-1.7-10-5-4-4.7-8.7-7.3-14-8l-14,1h-15c-9,0-3,10-11,16-6,2-7.3,5.7-4,11l6,18c0,6-2,14,2,18,6.7,5.3,14,8,22,8M514,842l1-1"/>
    <path class="st1" d="M517,840l1-6v-23c-.7-5.3-3.7-8.3-9-9h-8c-3.3,0-5.7,1.3-7,4-2,7,4,13,9,17,9,10-1,17,9,18"/>
    <path class="st0" d="M834,699h1"/>
    <path class="st1" d="M837,698l14-1c5.3,0,9.7-1.7,13-5,3-4,1-10,5-14l10-9c2.7-1.3,3.3-3.7,2-7-2-4-5-11-1-15l6-4c2-2.7,2.3-5.7,1-9-2-5.3-5.3-10-10-14l-13-7c-4.7-3.3-8.7-3-12,1l-6,10c-1.3,2-1.7,4-1,6,1.3,6.7,0,13-4,19l-5,4c-2,2.7-3.7,6-5,10-2,3.3-4.7,6-8,8-4,4.7-5,9.7-3,15,1.3,6.7,5.3,10.7,12,12"/>
    <path class="st0" d="M440,801l1-1"/>
    <path class="st1" d="M443,800c3.3-2,5.7-5,7-9,3.3-4,4-8.3,2-13-1.3-3.3-3.3-5.3-6-6-2-1.3-4.3-1-7,1-2,7,0,9-8,13-3,2-7,7-4,11,3.3,2,7,3,11,3"/>
    <path class="st0" d="M870,634c2,0,2.7-.7,2-2s-1.7-1.7-3-1v2l1,1ZM1236,326c2-.7,2.3-2,1-4l-1-4c-1.3-4.7-3.7-8.7-7-12-1.3-2-3.3-2.7-6-2-5.3,1.3-8.7,4.3-10,9-2,8,9,7,14,9,3.3,2,6.3,3.3,9,4M1104,309h1"/>
    <path class="st4" d="M1107,308c5.3-3.3,5.7-7.3,1-12-1.3-2-3-3-5-3l-6-2c-6,2-7.7,6-5,12,2.7,3.3,6,5.3,10,6"/>
    <path class="st0" d="M1103,309h1-1Z"/>
    <path class="st4" d="M916,711c2-1.3,3-3.3,3-6l-1-7c-2-3.3-4.7-4.3-8-3-1.3,2-2,4-2,6-.7,4.7.3,8.3,3,11"/>
    <path class="st0" d="M912,712h1M1104,306c2.7-.7,4-2.7,4-6-1.3-3.3-4.3-4.7-9-4-5,1-4,7,0,9l5,1ZM509,847h8c2.7,0,4.7-1,6-3,2-3.3,2-6.7,0-10v-10c1.3-4,1.3-8,0-12,0-8-7-12-13-13l-11-2c-10,0-11,12-6,19l7,9c2,2,3,4.3,3,7-1,5-1,14,6,15M1227,319c3.3-1.3,4.3-3.7,3-7-.7-3.3-2.3-5.3-5-6-3.3,0-5.3,1-6,3-2,2.7-1.7,5,1,7,2,1.3,4.3,2.3,7,3M59,842l1-1"/>
    <path class="st1" d="M62,841c4.7,0,7-1,7-3-2.7-2-5.7-3.3-9-4-4-2-2-10-3-14,0-4-1.3-5.3-4-4-3.3,2.7-7,4.3-11,5l-12,3v2c4,2.7,8.3,4.7,13,6l10,5,2,3,2,1"/>
    <path class="st0" d="M58,841h1"/>
    <path class="st5" d="M831,707l15-3c2-1.3,4.3-2.3,7-3,7-2,14-2,16-11-.7-4.7.3-8.7,3-12,4-5,16-8,14-16-2-2.7-3.7-6-5-10,2-3.3,4.7-6,8-8l1-7c-1.3-5.3-4.3-10.7-9-16-4.7-4-10-7-16-9l-8-4h-5l-2,4-7,11-1,6c2,6.7.3,13-5,19l-13,16c-3.3,2.7-6,5.7-8,9-1.3,7.3-2.3,15-3,23,.7,3.3,3,5,7,5,2.7,2,4.7,3.7,6,5l5,1Z"/>
    <path class="st0" d="M971,726c4-.7,5.7-2.3,5-5,.7-2,.3-3-1-3-3.3,0-5.7,1.3-7,4s-.7,4,2,4h1Z"/>
    <path class="st1" d="M938,636l3-2,5-5c4-1.3,7-3,9-5l6-4c4-3.3,7-7,9-11l2-14c.7-2,0-3-2-3-8-4-11-13-19-15-7-1-13,3-19,4l-9,3-5,7-1,4c-.7,4.7-1,9.7-1,15l2,9v6c0,3.3,1.3,6,4,8l11,3"/>
    <path class="st0" d="M1189,288c5-3,8-13,2-14-9-2-7,10-2,14M773,836c2,0,3.7-1,5-3l-2-6-3-2c-3.3-1.3-6-3.3-8-6-3-2-4,3-4,5s1.3,5.3,4,8c1.3,2.7,4,4,8,4M934,633l4-1,4-4,16-10c5.3-2.7,8.3-6.7,9-12,.7-2,.3-4-1-6,0-9-4-12-11-18-2-2-4.7-2.7-8-2-2.7.7-5,2-7,4l-7,2c-11,3-14,15-11,23,0,4.7-.3,9-1,13l3,6,10,5Z"/>
    <path class="st1" d="M1112,878c4-.7,7.7-1.7,11-3,3.3-2.7,4.7-6,4-10-2.7-2.7-6.7-5-12-7-3.3-2.7-6-5.7-8-9-1-4,2-9-2-11l-14-8c-1.3-1.3-3-2.3-5-3l-3,2-5,6-4,5c-2.7,3.3-3.7,7-3,11,2.7,6.7,6.7,11,12,13l7,4c4.7,4.7,10,8,16,10"/>
    <path class="st0" d="M1107,878h1M738,829c2-.7,3.3-1.7,4-3,2-3-2-4-4-4l-4,4,2,3h2ZM1248,238c-6-1-12-4-16,2-3.3,2-6.3,4.7-9,8-2,3.3-2,6.7,0,10,5,6,18,7,26,7M875,846c3.3-.7,5.3-3,6-7,1.3-4,.7-8-2-12-1.3-1.3-2.3-3-3-5,0-3.3.7-6.7,2-10-2.7-10.7-9.7-15.7-21-15-2.7.7-5,2.3-7,5-2.7,2.7-6,3-10,1-4-2.7-5.3-5.7-4-9,0-4-1.7-7-5-9-7-4-5-6-4-13,.7-2.7-1-4-5-4-3.3.7-7,1-11,1-10-2-8-13-17-11-6,2-1,6-1,10l-2,9c-.7,3.3-.3,6.3,1,9l5,4c6,2.7,9.3,7,10,13,1.3,1.3,3.3,2.3,6,3,4,0,8,.7,12,2,5.3,2.7,10.7,4.7,16,6l9,3,3,1,4-2,3-1c2.7,2,3.7,4.7,3,8-2,4-8,6-9,10,.7,4.7,3,7.7,7,9l7,2,7,2ZM1188,256c4-1.3,6.3-3.7,7-7-.7-3.3-3-5-7-5s-11,1-9,6c2,3.3,5,5.3,9,6M1146,251c4.7-.7,8-2,10-4,2.7-4.7,4-10,4-16l1-7c-1.3-2-4-2.3-8-1-4.7,2.7-8.7,7-12,13-2,2.7-3.3,5.3-4,8,1.3,4.7,4.3,7,9,7M324,826l5-1c6-2,5-10,1-13-4-2-10-1-10,4v3c0,4-3,6,4,7"/>
    <path class="st0" d="M1147,247l8-4c2-4,2.3-8,1-12-1.3-2.7-3-3-5-1-4.7,3.3-7.7,7.3-9,12,0,2.7,1.7,4.3,5,5M933,629c2.7-1.3,4.3-2.7,5-4l6-2,12-7c3.3-2,5.7-4.7,7-8l1-4-1-7-4-8-8-5-5,2-6,2c-4.7,0-8.7,2.3-12,7-1.3,2-2.3,4.3-3,7l2,8-2,8c0,6,2.7,9.7,8,11M1113,875c5-1,15-5,7-11l-5-3c-4-2.7-7.3-5.7-10-9-2-2-2.7-4.3-2-7,0-7-12-11-18-9-2,.7-3.3,1.7-4,3l-4,6c-.7,4,.3,7.3,3,10,1.3,2,3.3,3.7,6,5l7,4,6,6c4.7,3.3,9,4.7,13,4M740,602c4.7-.7,7-3,7-7,.7-2,0-3-2-3-4.7,0-8,1.3-10,4-1.3,2-.7,3.7,2,5l3,1ZM1135,538c4-3.3,4-6,0-8h-1c-2.7,2.7-2.7,5.3,0,8M653,815l9-4c4,0,7.3-1.3,10-4,1.3-2,2-4.7,2-8,1.3-3.3,3.7-6,7-8l4-7,3-4c-1-3-6,0-8-1-3.3-1.3-4.7-3.3-4-6l4-5c4-3,2-8-2-5-5.3,2.7-10.3,3-15,1h-13l-3,1c-2.7,2-5,4.3-7,7-2.7,4-4.3,7.7-5,11-1,3,2,6,1,9l-5,5-4,8v4c2.7,2,6,2.7,10,2l7,2,9,2ZM469,791h1"/>
    <path class="st1" d="M472,790l2-3,3-5,4-3c2.7-.7,5-1.7,7-3l2-4,6-4c2.7-2,5.7-3.3,9-4,2,.7,4.7.3,8-1,8-6-5-12-11-13l-12,1c-3.3-.7-6-1.7-8-3s-3.7-2-5-2l-3,3-3,4c-2.7,3.3-4.7,7.3-6,12,0,3.3.3,6.3,1,9l1,5c-.7,4-.3,7.7,1,11"/>
    <path class="st0" d="M1135,543c4-.7,7-3,9-7,2-2.7,1.7-5.3-1-8l-6-8c-2.7-2.7-3.3-5.7-2-9l3-9c5.3-4,8.3-8.3,9-13v-11l1-13v-3l-4-6c-1.3-3.3-3.3-6-6-8-4-2-11-2-11-8l2-6,2-6c2.7-5.3,2.7-10.3,0-15-2-2.7-5.3-2.7-10,0l-8,4c-11,4-16-7-20-3l-10,9c-7,6,1,15-13,22-9.3,4-19.3,6.3-30,7-4,0-6.3,1.7-7,5-1.3,4-4,6.3-8,7s-8-.3-12-3c-1.3-3.3-3.3-6-6-8s-5.3-2.3-8-1l1,4v8l4,5c1.3,2.7,3,5,5,7,10,5.3,19.7,8.3,29,9,8,2,7,6,9,12,.7,2.7,2.7,3.3,6,2l9-4,4-6c2.7-4.7,7-8,13-10,4.7-2.7,9-1.7,13,3l4,10,11,10,3,6c.7,3.3,1.7,6,3,8,3.3,2,7,3.3,11,4,2.7,3.3,4,7.3,4,12-1.3,5.3.7,9,6,11M600,895c-2-4.7-4.7-9.7-8-15-2-6-6.3-8.7-13-8-2,0-3.7-1-5-3-3-7-9-12-15-7-5.3,6-5.7,12.3-1,19,1.3,2.7,3.7,4.3,7,5,3,0,6-5,9-5,7,1,9,8,10,13M1172,553c6-3,5-8,5-13,.7-1.3,1.7-2,3-2,5-1,5-9,0-8l-8,5-6,3-2,2c-1.3,2.7-1,4.7,1,6l7,7ZM1165,238l7-4c3.3-1.3,5-3.7,5-7l-5-12c-1-5-7-5-10-2s1,4,3,6c6,6-6,12-1,19"/>
    <path class="st5" d="M732,879c12-2,18-1,20-15,0-5.3-.3-10.7-1-16v-6c-2.7-2.7-5.7-3.7-9-3l-11-4-9-5c-2-1.3-3-1-3,1s.3,5,1,7c-.7,4-3,7.3-7,10-2.7,4.7-2.7,9.7,0,15l1,5,2,2c4,4,9.3,7,16,9"/>
    <path class="st0" d="M88,838c4.7-3.3,5.7-7,3-11l-5-3-11-8c-3.3-2.7-7-2.7-11,0-2.7,3.3-3.7,7-3,11,2.7,4.7,6.7,7,12,7l15,4ZM1196,227l7-2c2.7-.7,4-1.7,4-3-1-7-5-17-13-17s-6.3,1.3-9,4c-1,4,3,8,4,12,.7,3.3,3,5.3,7,6"/>
    <path class="st0" d="M1198,222c8-1,3-14-4-14-5.3.7-6.7,3.3-4,8,1.3,3.3,3.7,5.3,7,6M722,708c3.3-1.3,3.3-3,0-5-3.3-1.3-5-.3-5,3l5,2ZM414,780c2-1.3,2.7-3.3,2-6-1.3-2.7-3.3-4-6-4-3.3.7-5,2.7-5,6,2,2.7,4.7,4,8,4M70,830l1-1"/>
    <path class="st4" d="M73,829c3.3-2,4.3-4.3,3-7l-6-3c-5,0-8,7-4,9l2,1"/>
    <path class="st0" d="M882,529c1,0,9-4,7-5-2.7-.7-5.7-.7-9,0v2c-1.3,2-1,3,1,3"/>
    <path class="st5" d="M934,621h8l11-7c4.7-5.3,6.7-11,6-17l-3-5-6-1-11,1c-4,1.3-6.7,4.3-8,9v5l-1,10c0,3.3,1,5,3,5"/>
    <path class="st0" d="M195,891c-2-4-4.7-7.3-8-10l-4-4c-3.3-2-6-5-8-9,0-2.7-.7-5-2-7-6-6-17-9-23-3s-10,13-6,19,15,3,17,10M134,836h1"/>
    <path class="st3" d="M137,835l7-2c6-5-6-10-10-10-4-1.3-6.3,0-7,4-1.3,4.7.3,7.7,5,9"/>
    <path class="st0" d="M133,836h1"/>
    <path class="st5" d="M653,809l10-2c2.7-.7,4.7-2,6-4s2.3-4.7,3-8l5-5c2-2,2.7-4,2-6l-6-3-3-4-3-5-8,1c-6-2-10-8-15-1-3,4-8,9-6,14l2,8v7c2,5.3,6,8.3,12,9"/>
    <path class="st0" d="M501,880c3.3-2.7,3-5-1-7h-4l-1,4c1.3,2,3,3,5,3M265,850c7-2,4-13-3-9-2.7.7-4,2.7-4,6,1.3,2.7,3.3,3.7,6,3M135,833c3,0,8-1,6-5-1.3-2-3.3-2.7-6-2l-3,1-1,5,4,1ZM1246,145c-3.3-2.7-7.3-5-12-7-1.3-2.7-2.7-5.7-4-9-2-2-4.3-2.3-7-1-4,3-2,9-4,13,0,3.3-1.7,5.7-5,7-5.3,1.3-9.3,3-12,5-6,15,10,30,22,38,7.3,2,14.7,3.7,22,5"/>
    <path class="st0" d="M1246,149c-5.3-4-11.3-5.3-18-4l-12,6-8,3c-2,.7-3.3,2-4,4v7c7,17,25,28,43,29M1133,177h6l7-3c2.7-2.7,2.3-6-1-10-3.3-2.7-7.3-3.7-12-3-5.3,0-8.7,2.3-10,7-1,5,6,9,10,9"/>
    <path class="st0" d="M1246,154c-11-10-26,0-39,4-6,6,9,19,13,23,8.7,6,17.7,9.3,27,10"/>
    <path class="st0" d="M1247,159l-6-6c-3.3,0-6.3.7-9,2-1.3,1.3-3,2.3-5,3-4,.7-8,.3-12-1-5,0-7,6-4,9l11,14,4,2h13c3.3,2,6,4,8,6M1133,173c3.3-1.3,4.3-3,3-5,.7-.7-.3-1.7-3-3-5,0-5,7,0,8M917,545c4.7-1.3,7.3-4,8-8,1-3,4-12-3-10l-6,1c-2,0-3.3,1-4,3,1,5-1,13,5,14M940,618c5-1,9-7,3-9-4-.7-7,.7-9,4,.7,3.3,2.7,5,6,5M955,553l4-1c2.7-1.3,4-3.3,4-6s-3-4-1-6c2.7-2,4.3-4.3,5-7-2-3.3-5-4-9-2l-2,4-5,6c-6,6-4.7,10,4,12M658,805c4.7-.7,8-3,10-7,2-3.3,2.3-6.7,1-10l-5-5c-1.3-2.7-4-4.7-8-6l-7-2c-4,1.3-6.7,3.7-8,7,0,3.3.7,6.3,2,9,3,6,6,14,14,14M698,714c6-2,1-10-4-9-2,.7-3,1.7-3,3,.7,3.3,2.7,5.3,6,6h1Z"/>
    <path class="st1" d="M1011,754l6-3,4-2c2-5-1-11,0-16v-2c-2-7-14-17-18-7-3.3,4.7-6,9.7-8,15v8l4,3,7,3"/>
    <path class="st0" d="M1113,581c3-1,8-2,7-6,0-1.3-.7-2.3-2-3h-3c-4,2.7-4.7,5.7-2,9M1039,894c.7-6-.7-10.7-4-14-5.3-3.3-10.7-4-16-2-2.7,1.3-4.7,3-6,5s-3,3-5,3l-24,3c-5.3-.7-9,1.3-11,6M705,807c3.3-.7,5.3-2.7,6-6-2-3.3-4.7-5-8-5s-4,6-3,8c.7,1.3,2.3,2,5,2M1162,591l8-2v-4l-5-2-5,2-3,3c0,2,1.3,3,4,3M1044,766l3-2v-5c-.7-2-2.7-2.7-6-2-2,1.3-2.7,3-2,5,.7,2.7,2.3,4,5,4M953,834c7-3,0-12-6-11-4,1.3-5.7,4-5,8l3,2,8,1ZM658,796c3.3-1.3,4-3,2-5-1.3-2-3.3-3.3-6-4-7,2-1,9,4,9M562,711c5.3-1.3,6-4,2-8l-9-6-3-6c-2-1.3-4.3-1-7,1-1.3,1.3-1.3,3.3,0,6,2.7,4.7,6.3,8.3,11,11l6,2Z"/>
    <path class="st0" d="M564,714l7-1c4-3-3-10-5-12-4-2.7-6.3-6.3-7-11,2-9-8-7-13-5-3.3,2-5.7,5-7,9l2,7c5.3,8,13,12.3,23,13M666,733c4-.7,6-2.7,6-6l-8-10c-.7-1.3-2-2.3-4-3-3.3,1.3-4.7,3.3-4,6l2,4c2,4,2,9,8,9"/>
    <path class="st5" d="M1199,803l9-2,6-2c4-2.7,5.7-6,5-10-2.7-2-6-3.3-10-4-4.7-.7-7.7.7-9,4v7c-2,2-3.3,3.7-4,5s.3,2,3,2"/>
    <path class="st0" d="M793,596c4.7-.7,6.3-3,5-7-1.3-3.3-4-4.7-8-4-6,3-2,10,3,11M599,784c4.7-.7,6.7-3.7,6-9-.7-1.3-1.7-1.7-3-1l-3,4-3,3c-.7,2.7.3,3.7,3,3M382,836c4.7-2,8-5,10-9,0-3.3-1.3-5-4-5-5,1-15,12-7,14M662,738l11-1c4.7-2.7,6-6,4-10l-5-7c-2.7-2-4.3-4.3-5-7v-5c-1.3-2.7-3.3-2.7-6,0l-7,4c-2.7,3.3-3.3,6.7-2,10,2,4,3.3,8,4,12,1.3,2.7,3.3,4,6,4Z"/>
    <path class="st1" d="M324,829c6,0,13-1,13-10s-2.3-7-7-9c-4-2.7-7.7-3-11-1-5,4-7,17-1,20"/>
    <path class="st0" d="M319,829h1M748,799c4-.7,4.7-2.7,2-6-1.3-4-3-8-5-12-1.3-2.7-2.3-5.7-3-9-2-4-5.3-6.3-10-7-8-2-16-9-24-5-3,1-7,7-5,10l4,2,5,4c5,3,6,4,12,4l5,2,10,11,2,2c2,2.7,4,4,6,4M1230,643l5-1,2-1-3-4-2-8c-2-4.7-5.7-6-11-4-1.3,2-2,4.7-2,8-3,9,4,9,10,10h1Z"/>
    <path class="st1" d="M150,821c2.7-.7,5-1.7,7-3,0-3.3-1.7-5.3-5-6-4-1.3-7.3-1-10,1-2,3.3-1,5.7,3,7"/>
    <path class="st0" d="M1007,580c3-1,8-4,5-8-2-3-8-7-11-3-2,1.3-2.3,3.3-1,6,2,2.7,4.3,4.3,7,5M743,751l8-3,6,1c4.7.7,8-.7,10-4,2-1.3,2-3,0-5s-2.3-3-3-5l-4-8-5-4-7-6c-.7-2.7-2-4.7-4-6h-6c-3.3,1.3-5.3,3.3-6,6-1,3,3,6,2,10l-2,4c-.7,2.7-.3,5.7,1,9,1.3,6,4.3,9.7,9,11M321,832c6-2,14,0,17-6,2.7-6.7,1.3-12.3-4-17-4-2-8.3-3-13-3h-4c-4.7,3.3-7,8.3-7,15s3,10,11,11M890,772h1"/>
    <path class="st1" d="M893,772c2.7-.7,4-2,4-4,0-4-.7-7.7-2-11-2.7-3.3-6-4.7-10-4-4,2-10,11-7,15,2.7,2,6,3.3,10,4"/>
    <path class="st0" d="M889,772h1M1006,788l5-2c1.3-2,.3-3.7-3-5-6-3-8,5-2,7"/>
    <path class="st5" d="M741,756c2.7-1.3,5.3-2.3,8-3h7c4,.7,7,0,9-2l7-4c3.3-3.3,3-6.3-1-9-3.3-3.3-5.7-6.3-7-9-4-5.3-7.7-9.7-11-13-2-3.3-4.3-6.3-7-9-5.3,0-10,1-14,3-2.7.7-4,2-4,4,0,14-3,29,8,40l5,2Z"/>
    <path class="st0" d="M887,776l12-1c4.7-2,6.3-5.3,5-10l-5-11c-4-3.3-8-5-12-5s-9.3,1-14,3l-6,1c-.7,1.3,0,3,2,5v4c-1.3,6.7,1.3,10.7,8,12l10,2ZM534,732c4-1.3,5.7-4,5-8-1.3-2-3.7-3-7-3-3.3,1.3-5,3.3-5,6,1.3,3.3,3.7,5,7,5M1124,808c2.7,0,4.3-1,5-3,0-4.7-2.3-7.3-7-8-2,0-3.3,1-4,3v3c.7,2.7,2.7,4.3,6,5M942,603l6-2h3v-2l-1-1c-4-.7-7.3-.7-10,0-2,.7-2.7,2-2,4l4,1Z"/>
    <path class="st0" d="M538,735c3.3-2,4.7-5,4-9,.7-6-1.7-9-7-9s-13,5-11,12c2.7,4.7,7,6.7,13,6M1032,798c4-.7,7.7-2,11-4,2.7-.7,3.3-2.7,2-6-2.7-2.7-5.7-3.7-9-3l-8,1c-8,3-3,12,4,12"/>
    <path class="st5" d="M514,859c7-2,19-4,19-13l-1-12,2-6v-6l-3-12,1-7c0-2.7-1.3-5.7-4-9l-3-3c-2-1.3-4.7-1-8,1-3.3.7-7,.3-11-1-5.3-2-10.7-2.3-16-1-3.3,2-5.3,4.7-6,8-2,2-2.7,4.3-2,7l3,6,3,9,5,8,3,15c1.3,8.7,7,14,17,16"/>
    <path class="st0" d="M1057,617l10-4c4,0,6.7-1.3,8-4v-7c-2-7.3-7.3-13.3-16-18l-6-1-3,2-1,6c-1.3,4-2.3,8.7-3,14,0,2.7,1.3,5.7,4,9,1.3,1.3,3.7,2.3,7,3"/>
    <path class="st0" d="M1056,612c4-.7,7.7-2,11-4,2.7-.7,4.3-2.3,5-5-.7-5.3-4-9.3-10-12-4-1.3-6.7.3-8,5l-3,4c-3,4,0,11,5,12M193,820c6-1,9-7,3-10-2-1.3-4.3-1.7-7-1-5,4-2,11,4,11M946,685c3.3,0,4-1.3,2-4l-7-4c-2-2-1-9-4-9s-2,6-2,8c.7,1.3,2,2.3,4,3l2,2,3,4h2ZM800,780l4-1v-4l-4-1c-1.3,0-2,1-2,3-.7.7,0,1.7,2,3Z"/>
    <path class="st1" d="M940,851c4-1,11-3,10-8-2-4-7-2-10-3l-4-2c-4-2-11-2-13,1-1.3,2-1.7,3.7-1,5,2.7,4,7,6.3,13,7"/>
  </g>
</svg>